<?xml version="1.0" encoding="UTF-8" standalone="no"?>
<!DOCTYPE svg PUBLIC "-//W3C//DTD SVG 1.1//EN" "http://www.w3.org/Graphics/SVG/1.1/DTD/svg11.dtd">
<svg width="100%" height="100%" viewBox="0 0 939 637" version="1.1" xmlns="http://www.w3.org/2000/svg" xmlns:xlink="http://www.w3.org/1999/xlink" xml:space="preserve" xmlns:serif="http://www.serif.com/" style="fill-rule:evenodd;clip-rule:evenodd;stroke-linejoin:round;stroke-miterlimit:2;">
    <g transform="matrix(1,0,0,1,-1939.27,-5410.11)">
        <g transform="matrix(1,0,0,1,1687.5,5035.26)">
            <g transform="matrix(1,0,0,1,8.97536,2.86458)">
                <g>
                    <g transform="matrix(0,-1,-1,0,504.923,824.268)">
                        <path d="M-92,-92C-142.81,-92 -184,-50.81 -184,0C-184,50.81 -142.81,92 -92,92C-41.19,92 0,50.81 0,0C0,-50.81 -41.19,-92 -92,-92" style="fill:rgb(38,82,154);fill-rule:nonzero;"/>
                    </g>
                    <g transform="matrix(1,0,0,1,504.928,984.327)">
                        <path d="M0,-136.117L-25.536,-95.579L-16.636,-95.579L-40.739,-57.178L-31.851,-57.178L-56.946,-17.004L-10.35,-17.004L-10.35,0L0,0L-0.009,0L10.341,0L10.341,-17.004L56.937,-17.004L31.842,-57.178L40.73,-57.178L16.627,-95.579L25.526,-95.579L-0.009,-136.117L0,-136.117Z" style="fill:white;fill-rule:nonzero;"/>
                    </g>
                    <g transform="matrix(1,0,0,1,623.108,995.443)">
                        <path d="M0,-124.341L29.36,-124.338L26.104,-105.804C35.201,-121.249 43.855,-126.911 57.897,-126.91C68.109,-126.909 75.691,-123.561 78.901,-117.126C82.201,-111.205 82.211,-103.998 79.091,-86.236L63.488,2.57L30.809,2.567L45.959,-83.665C47.315,-91.387 47.303,-94.218 46.343,-96.021C45.218,-98.338 42.38,-99.625 38.806,-99.625C31.146,-99.626 27.569,-95.25 25.534,-83.667L10.384,2.565L-22.296,2.562L0,-124.341Z" style="fill:rgb(38,82,154);fill-rule:nonzero;"/>
                    </g>
                    <g transform="matrix(1,9.17993e-05,9.17993e-05,-1,735.407,826.323)">
                        <path d="M-0.008,-0L32.672,-0L2.522,-171.695L-30.158,-171.695L-0.008,-0Z" style="fill:rgb(38,82,154);fill-rule:nonzero;"/>
                    </g>
                    <g transform="matrix(1,0,0,1,820.387,998.02)">
                        <path d="M0,-172.976L-6.151,-137.969L-38.831,-137.972L-32.68,-172.979L0,-172.976ZM-40.775,-126.903L-8.095,-126.9L-30.391,0.003L-63.071,0L-40.775,-126.903Z" style="fill:rgb(38,82,154);fill-rule:nonzero;"/>
                    </g>
                    <g transform="matrix(1,0,0,1,831.695,995.464)">
                        <path d="M0,-124.341L29.361,-124.338L26.105,-105.804C35.201,-121.249 43.855,-126.911 57.897,-126.91C68.11,-126.909 75.692,-123.561 78.901,-117.126C82.202,-111.205 82.212,-103.998 79.091,-86.236L63.488,2.57L30.809,2.567L45.959,-83.665C47.316,-91.387 47.303,-94.219 46.343,-96.021C45.219,-98.338 42.381,-99.625 38.807,-99.625C31.147,-99.626 27.569,-95.25 25.534,-83.667L10.384,2.565L-22.296,2.562L0,-124.341Z" style="fill:rgb(38,82,154);fill-rule:nonzero;"/>
                    </g>
                    <g transform="matrix(1,0,0,1,980.464,949.644)">
                        <path d="M0,-30.113C3.183,-49.676 1.311,-57.914 -6.859,-57.914C-15.285,-57.915 -20.426,-50.451 -25.02,-30.115L0,-30.113ZM-28.428,-9.265L-29.242,-4.632C-33.131,17.505 -30.749,25.743 -20.792,25.744C-12.877,25.744 -8.654,20.597 -3.853,4.895L22.803,7.214C19.686,20.6 14.138,30.381 5.241,38.874C-3.355,47.111 -13.735,50.971 -26.501,50.97C-56.627,50.967 -67.892,29.344 -60.293,-13.901C-52.65,-57.404 -32.66,-81.084 -3.555,-81.081C14.827,-81.08 25.919,-71.554 29.602,-53.278C31.503,-43.753 30.518,-30.883 26.719,-9.26L-28.428,-9.265Z" style="fill:rgb(38,82,154);fill-rule:nonzero;"/>
                    </g>
                </g>
            </g>
        </g>
        <g transform="matrix(1,0,0,1,1687.5,5035.26)">
            <g transform="matrix(1,0,0,1,697.383,547.054)">
                <path d="M0,65.541L47.117,65.541L23.558,103.255L0,65.541ZM265.74,65.541L193.148,-50.115L219.951,-50.115L143.045,-172.205L66.137,-50.115L92.94,-50.115L23.558,60.427L-45.824,-50.115L-19.021,-50.115L-95.927,-172.205L-172.835,-50.115L-146.032,-50.115L-218.624,65.541L-191.855,65.541L-267.436,186.534L-127.099,186.534L-127.099,237.746L-64.756,237.746L-64.756,186.534L111.874,186.534L111.874,237.746L174.216,237.746L174.216,186.534L314.552,186.534L238.972,65.541L265.74,65.541Z" style="fill:rgb(247,70,70);fill-rule:nonzero;"/>
            </g>
            <g transform="matrix(1,0,0,1,372.55,659.769)">
                <path d="M0,-241.566L-120.783,-120.783L0,0L33.551,-33.55L-53.681,-120.782L33.551,-208.015L0,-241.566Z" style="fill:rgb(247,70,70);fill-rule:nonzero;"/>
            </g>
            <g transform="matrix(1,0,0,1,1156.56,572.537)">
                <path d="M33.551,-33.551L-87.232,-154.334L-120.783,-120.783L-33.551,-33.55L-120.783,53.681L-87.233,87.232L0,-0L33.551,-33.551Z" style="fill:rgb(247,70,70);fill-rule:nonzero;"/>
            </g>
        </g>
    </g>
</svg>
