<?xml version="1.0" encoding="UTF-8" standalone="no"?>
<!DOCTYPE svg PUBLIC "-//W3C//DTD SVG 1.1//EN" "http://www.w3.org/Graphics/SVG/1.1/DTD/svg11.dtd">
<svg width="100%" height="100%" viewBox="0 0 1280 1280" version="1.1" xmlns="http://www.w3.org/2000/svg" xmlns:xlink="http://www.w3.org/1999/xlink" xml:space="preserve" xmlns:serif="http://www.serif.com/" style="fill-rule:evenodd;clip-rule:evenodd;stroke-linecap:round;stroke-miterlimit:10;">
    <g transform="matrix(40,0,0,40,0,0)">
        <rect id="Artboard1" x="0" y="0" width="32" height="32" style="fill:none;"/>
        <clipPath id="_clip1">
            <rect id="Artboard11" serif:id="Artboard1" x="0" y="0" width="32" height="32"/>
        </clipPath>
        <g clip-path="url(#_clip1)">
            <g transform="matrix(0.013413,0,0,0.013413,15.9812,19.6714)">
                <g transform="matrix(1,0,0,1,-1042,-1042)">
                    <g transform="matrix(4.16667,0,0,4.16667,0,0)">
                        <g>
                            <rect id="Page-9" serif:id="Page 9" x="0" y="0" width="500" height="500" style="fill:none;"/>
                            <g id="Page-91" serif:id="Page 9">
                                <g id="preton">
                                    <g transform="matrix(0,-1,-1,0,246.103,381.719)">
                                        <path d="M-62.645,-62.645C-65.757,-62.645 -68.281,-34.598 -68.281,0C-68.281,34.598 -65.757,62.645 -62.645,62.645C-59.533,62.645 -57.009,34.598 -57.009,0C-57.009,-34.598 -59.533,-62.645 -62.645,-62.645" style="fill:rgb(230,230,230);fill-rule:nonzero;"/>
                                    </g>
                                    <g transform="matrix(1,0,0,1,233.314,446.979)">
                                        <path d="M0,-62.008C-1.951,-58.341 -3.533,-51.643 -4.808,-43.774C-5.493,-39.56 -6.091,-35.004 -6.607,-30.4C-7.617,-21.434 -8.319,-12.274 -8.783,-5.038C-9.039,-1.041 -14.45,0 -16.162,-3.62C-19.717,-11.129 -27.079,-26.225 -28.271,-42.296C-28.483,-45.17 -28.496,-48.074 -28.262,-50.975C-28.149,-52.345 -27.98,-53.71 -27.746,-55.071L0,-62.008Z" style="fill:rgb(12,114,186);fill-rule:nonzero;"/>
                                    </g>
                                    <g transform="matrix(-0.199868,-0.979823,-0.979823,0.199868,212.452,402.207)">
                                        <path d="M-4.186,-15.531C-8.179,-14.017 -11.308,-12.875 -15.715,-11.449C-14.086,-7.799 -9.15,-2.682 -4.186,1.686C-2.15,0.827 -2.488,1.339 -2.488,1.339L-4.186,-15.531Z" style="fill:rgb(16,68,76);fill-rule:nonzero;"/>
                                    </g>
                                    <g transform="matrix(1,0,0,1,322.408,373.755)">
                                        <path d="M0,12.515C1.081,12.082 4.982,-2.658 4.982,-2.658L11.485,-0.057L9.318,2.978L13.653,2.111L14.954,6.879L0,15.173" style="fill:rgb(17,85,102);fill-rule:nonzero;"/>
                                    </g>
                                    <g transform="matrix(1,0,0,1,326.953,389.987)">
                                        <path d="M0,-7.175C-0.152,-6.802 -6.841,9.113 -23.992,-1.518C-25.968,-2.744 -28.084,-4.322 -30.343,-6.317L-30.026,-7.223L-26.875,-16.288C-26.424,-15.538 -25.951,-14.797 -25.457,-14.077C-24.039,-12.009 -22.453,-10.088 -20.749,-8.433C-14.488,-2.346 -6.667,0.112 0,-7.175" style="fill:rgb(12,114,186);fill-rule:nonzero;"/>
                                    </g>
                                    <g transform="matrix(1,0,0,1,306.204,382.824)">
                                        <path d="M0,-1.27L-3.243,5.645C-5.22,4.418 -7.335,2.84 -9.594,0.846L-9.278,-0.06L-4.708,-6.915C-3.291,-4.846 -1.704,-2.925 0,-1.27" style="fill:rgb(6,123,162);fill-rule:nonzero;"/>
                                    </g>
                                    <g transform="matrix(1,0,0,1,257.228,264.905)">
                                        <path d="M0,-56.724C-1.149,-49.948 -3.408,-43.285 -6.542,-36.972C-10.418,-29.152 -15.638,-21.872 -21.737,-15.595C-34.526,-2.437 -51.187,6.311 -67.536,6.389C-97.974,6.537 -97.735,-31.041 -59.459,-24.24C-40.067,-20.792 -28.327,-25.756 -20.081,-34.077C-17.237,-36.942 -14.814,-40.202 -12.633,-43.658C-8.64,-49.974 -5.467,-56.927 -2.068,-63.261L0,-56.724Z" style="fill:rgb(42,170,226);fill-rule:nonzero;"/>
                                    </g>
                                    <g transform="matrix(1,0,0,1,235.491,219.795)">
                                        <path d="M0,29.515C1.682,23.584 1.821,16.115 1.656,11.034C4.5,8.168 6.923,4.909 9.104,1.453L12.13,0L15.195,8.138C11.319,15.958 6.1,23.238 0,29.515" style="fill:rgb(6,123,162);fill-rule:nonzero;"/>
                                    </g>
                                    <g transform="matrix(0,-92.1931,-92.1931,0,182.841,142.193)">
                                        <path d="M0.971,0.514C0.923,0.598 0.823,0.64 0.728,0.619L0.427,0.552C0.288,0.521 0.182,0.41 0.158,0.27L0,-0.656L0.094,-0.656L0.161,-0.474C0.176,-0.434 0.22,-0.414 0.26,-0.429L0.438,-0.498C0.48,-0.514 0.527,-0.49 0.538,-0.446C0.55,-0.403 0.52,-0.359 0.475,-0.353L0.269,-0.325C0.239,-0.321 0.221,-0.291 0.23,-0.262L0.272,-0.14C0.287,-0.095 0.339,-0.075 0.38,-0.099L0.539,-0.189C0.594,-0.22 0.664,-0.19 0.68,-0.129C0.702,-0.038 0.634,0.05 0.54,0.05L0.487,0.05C0.405,0.05 0.345,0.127 0.367,0.206C0.379,0.252 0.43,0.275 0.472,0.255L0.629,0.179C0.777,0.108 0.954,0.191 0.993,0.351C0.998,0.369 1,0.387 1,0.405C1,0.444 0.99,0.481 0.971,0.514Z" style="fill:url(#_Linear2);fill-rule:nonzero;"/>
                                    </g>
                                    <g transform="matrix(0,-279.291,-279.291,0,249.045,416.715)">
                                        <path d="M1,-0.024L0.882,0.108L0.829,0.078C0.821,0.077 0.813,0.074 0.805,0.071C0.804,0.071 0.797,0.068 0.795,0.067C0.748,0.048 0.689,0.015 0.606,0.041C0.594,0.044 0.583,0.05 0.572,0.056C0.483,0.112 0.405,0.259 0.197,0.227C0.138,0.218 0.095,0.195 0.064,0.165C-0.013,0.09 -0.01,-0.031 0.019,-0.098C0.021,-0.104 0.024,-0.109 0.027,-0.114C0.029,-0.118 0.032,-0.122 0.034,-0.125C0.068,-0.168 0.229,-0.284 0.45,-0.281C0.467,-0.281 0.485,-0.28 0.504,-0.278C0.612,-0.267 0.734,-0.227 0.86,-0.137C0.89,-0.116 0.92,-0.092 0.95,-0.065L1,-0.024Z" style="fill:url(#_Linear3);fill-rule:nonzero;"/>
                                    </g>
                                    <g transform="matrix(0.0567376,-0.998389,-0.998389,-0.0567376,234.277,187.709)">
                                        <path d="M-4.525,-4.503C-4.525,-4.503 -5.543,-0.18 -7.299,3.519C-6.362,3.972 -5.434,4.403 -4.525,4.803L-2.002,-3.058L-4.525,-4.503Z" style="fill:rgb(6,123,162);fill-rule:nonzero;"/>
                                    </g>
                                    <g transform="matrix(0.938243,-0.345976,-0.345976,-0.938243,334.338,286.651)">
                                        <path d="M-7.931,-1.779C-12.663,16.517 -10.265,43.62 -10.265,43.62L-7.931,43.684L-3.526,12.562C-4.816,7.608 -6.296,2.831 -7.931,-1.779" style="fill:rgb(6,123,162);fill-rule:nonzero;"/>
                                    </g>
                                    <g transform="matrix(-94.7414,-54.699,-54.699,94.7414,220.108,223.067)">
                                        <path d="M0.412,-0.495C0.433,-0.478 0.457,-0.461 0.482,-0.443C0.553,-0.393 0.622,-0.357 0.687,-0.325C0.845,-0.246 0.971,-0.185 0.997,0.029C1.034,0.329 0.697,0.594 0.562,0.624C0.436,0.652 0.372,0.597 0.338,0.513C0.307,0.436 0.29,-0.061 0.065,-0.284C0.045,-0.304 0.023,-0.321 0,-0.337L0.133,-0.529L0.232,-0.673C0.266,-0.628 0.322,-0.567 0.412,-0.495Z" style="fill:url(#_Linear4);fill-rule:nonzero;"/>
                                    </g>
                                    <g transform="matrix(1,0,0,1,287.232,141.117)">
                                        <path d="M0,35.308C-4.257,37.112 -13.318,39.001 -20.97,27.522L-27.906,36.193C-27.906,36.193 -27.039,20.585 -33.108,15.817C-33.108,15.817 -32.242,25.787 -48.282,30.99C-48.282,30.99 -46.981,27.522 -46.114,21.453C-46.114,21.453 -47.649,23.403 -50.797,24.539C-53.198,25.411 -56.541,25.8 -60.854,24.487C-60.854,24.487 -59.871,22.9 -58.7,20.737C-57.057,17.719 -55.037,13.575 -54.785,11.047C-54.785,11.047 -67.297,17.502 -79.076,12.504C-66.642,10.653 -57.963,7.878 -52.344,5.525L-51.62,14.412L-31.375,-3.693L-20.103,10.18C-12.585,18.621 -5.904,27.006 0,35.308" style="fill:rgb(6,123,162);fill-rule:nonzero;"/>
                                    </g>
                                    <g transform="matrix(1,0,0,1,288.373,128.489)">
                                        <path d="M0,43.184C0,43.184 -12.009,51.59 -22.175,38.403C-22.591,37.865 -23.003,37.292 -23.411,36.681L-23.536,36.837L-30.347,45.352C-30.347,45.352 -29.48,29.745 -35.549,24.976C-35.549,24.976 -35.545,25.015 -35.545,25.084C-35.532,25.374 -35.536,26.229 -35.831,27.425C-36.646,30.711 -39.668,36.564 -50.723,40.15C-50.723,40.15 -49.856,37.834 -49.063,33.677C-48.889,32.745 -48.716,31.722 -48.555,30.612C-48.555,30.612 -48.616,30.69 -48.746,30.829C-49.713,31.882 -54.464,36.334 -63.295,33.647C-63.295,33.647 -57.659,24.542 -57.226,20.207L-57.23,20.211C-57.369,20.281 -60.447,21.837 -64.93,22.804C-69.868,23.871 -76.509,24.222 -82.804,21.075C-82.804,21.075 -69.365,16.739 -66.33,6.334C-63.295,-4.071 -53.758,-8.406 -43.353,-6.671L-32.948,-4.937C-19.942,-3.637 -10.86,6.144 -8.237,28.011C-6.936,38.849 0,43.184 0,43.184" style="fill:rgb(17,85,102);fill-rule:nonzero;"/>
                                    </g>
                                    <g transform="matrix(1,0,0,1,272.501,345.64)">
                                        <path d="M0,-36.137L-6.672,-36.971L-0.403,-39.479C-1.096,-42.851 -2.636,-46.169 -4.937,-49.11C-12.741,-59.081 -13.175,-66.451 -16.643,-77.289C-18.149,-81.991 -21.778,-85.467 -26.323,-87.403L-33.984,-73.822L-30.64,-88.72C-33.399,-89.261 -36.326,-89.306 -39.221,-88.791C-54.686,-63.854 -95.767,-42.061 -86.875,15.92C-84.334,32.503 -77.988,44.602 -69.607,53.169C-59.602,52.943 -50.198,45.859 -43.956,39.331C-39.703,34.884 -34.933,33.111 -30.185,31.433L-37.019,15.486L-29.215,25.891L-30.95,17.654L-22.039,28.101C-19.031,26.49 -16.168,24.272 -13.608,20.688C-4.937,8.55 -24.88,-12.694 -11.44,-18.763C-7.579,-20.506 -4.761,-22.932 -2.883,-25.738L-16.643,-30.468L0.001,-34.718C0.02,-35.189 0.017,-35.662 0,-36.137" style="fill:rgb(139,215,248);fill-rule:nonzero;"/>
                                    </g>
                                    <g transform="matrix(1,0,0,1,307.878,331.21)">
                                        <path d="M0,-117.893C9.654,-103.138 26.885,-70.956 56.166,-54.717C85.447,-38.477 63.671,0 32.61,-30.495C1.548,-60.989 -3.207,-109.206 -3.207,-109.206" style="fill:rgb(42,170,226);fill-rule:nonzero;"/>
                                    </g>
                                    <g transform="matrix(0,-1,-1,0,146.608,200.936)">
                                        <path d="M-6.07,-6.07C-13.133,-6.07 -18.859,-3.352 -18.859,-0C-18.859,3.351 -13.133,6.07 -6.07,6.07C0.994,6.07 6.72,3.351 6.72,-0C6.72,-3.352 0.994,-6.07 -6.07,-6.07" style="fill:rgb(139,215,248);fill-rule:nonzero;"/>
                                    </g>
                                    <g transform="matrix(0,-1,-1,0,127.099,198.769)">
                                        <path d="M-6.069,-6.07C-13.132,-6.07 -18.859,-3.352 -18.859,0C-18.859,3.352 -13.132,6.069 -6.069,6.069C0.993,6.069 6.72,3.352 6.72,0C6.72,-3.352 0.993,-6.07 -6.069,-6.07" style="fill:rgb(139,215,248);fill-rule:nonzero;"/>
                                    </g>
                                    <g transform="matrix(0.393906,-0.919151,-0.919151,-0.393906,179.725,249.635)">
                                        <path d="M-11.006,16.691C-11.006,16.691 9.316,12.193 25.312,16.691" style="fill:none;fill-rule:nonzero;stroke:rgb(6,123,162);stroke-width:1.11px;"/>
                                    </g>
                                    <g transform="matrix(0.980581,0.196116,0.196116,-0.980581,169.886,218.728)">
                                        <path d="M0.084,-0.85C1.869,1.274 7.141,1.445 8.926,-0.85" style="fill:none;fill-rule:nonzero;stroke:rgb(6,123,162);stroke-width:1.11px;"/>
                                    </g>
                                    <g transform="matrix(0.762274,0.647254,0.647254,-0.762274,155.437,145.53)">
                                        <path d="M-3.583,-9.755C5.702,-5.285 15.809,-5.802 26.56,-9.755" style="fill:none;fill-rule:nonzero;stroke:rgb(6,123,162);stroke-width:1.11px;"/>
                                    </g>
                                    <g transform="matrix(0.837013,0.547182,0.547182,-0.837013,162.239,142.261)">
                                        <path d="M-2.456,-8.247C6.828,-3.776 16.937,-4.294 27.685,-8.247" style="fill:none;fill-rule:nonzero;stroke:rgb(6,123,162);stroke-width:1.11px;"/>
                                    </g>
                                    <g transform="matrix(1,0,0,1,291.215,173.047)">
                                        <path d="M0,8.086C-1.071,8.494 -1.82,8.731 -1.82,8.731L-3.001,8.654C-3.001,8.654 -2.15,7.037 -1.066,5.211C0.543,2.51 2.656,-0.645 3.284,0.316C4.184,1.696 0.314,5.471 -0.433,6.74C-0.553,6.968 -0.591,7.109 -0.499,7.157C-0.457,7.183 -0.389,7.166 -0.298,7.13C0.975,6.567 6.548,0.435 7.065,2.991C7.464,4.963 2.713,7.064 0,8.086" style="fill:rgb(42,170,226);fill-rule:nonzero;"/>
                                    </g>
                                    <g transform="matrix(1,0,0,1,122.039,170.811)">
                                        <path d="M0,3.626C0.677,4.55 1.104,5.21 1.104,5.21L1.344,6.368C1.344,6.368 -0.441,5.977 -2.49,5.416C-5.521,4.581 -9.124,3.381 -8.363,2.521C-7.271,1.286 -2.605,4.017 -1.183,4.4C-0.932,4.455 -0.785,4.455 -0.764,4.353C-0.75,4.306 -0.784,4.245 -0.843,4.167C-1.723,3.089 -9.115,-0.658 -6.787,-1.835C-4.992,-2.742 -1.706,1.28 0,3.626" style="fill:rgb(139,215,248);fill-rule:nonzero;"/>
                                    </g>
                                    <g transform="matrix(1,0,0,1,246.225,115.414)">
                                        <path d="M0,6.09C-0.056,7.235 -0.14,8.016 -0.14,8.016L-0.683,9.067C-0.683,9.067 -1.823,7.639 -3.062,5.913C-4.89,3.356 -6.934,0.154 -5.8,-0.034C-4.175,-0.306 -2.27,4.753 -1.407,5.947C-1.246,6.149 -1.132,6.24 -1.051,6.174C-1.011,6.146 -0.999,6.077 -0.996,5.98C-1,4.588 -4.383,-2.977 -1.834,-2.426C0.132,-2 0.151,3.194 0,6.09" style="fill:rgb(17,85,102);fill-rule:nonzero;"/>
                                    </g>
                                    <g transform="matrix(1,0,0,1,255.051,118.969)">
                                        <path d="M0,4.989C-0.573,5.418 -0.983,5.687 -0.983,5.687L-1.713,5.836C-1.713,5.836 -1.498,4.695 -1.18,3.387C-0.707,1.453 -0.014,-0.847 0.545,-0.356C1.348,0.349 -0.296,3.32 -0.513,4.228C-0.543,4.389 -0.54,4.483 -0.475,4.497C-0.445,4.506 -0.407,4.484 -0.358,4.447C0.308,3.889 2.545,-0.822 3.333,0.674C3.941,1.826 1.454,3.909 0,4.989" style="fill:rgb(17,85,102);fill-rule:nonzero;"/>
                                    </g>
                                    <g transform="matrix(1,0,0,1,238.473,222.558)">
                                        <path d="M0,-7.939C1.11,-8.223 1.881,-8.374 1.881,-8.374L3.045,-8.164C3.045,-8.164 2.017,-6.654 0.733,-4.961C-1.172,-2.46 -3.629,0.435 -4.144,-0.591C-4.881,-2.065 -0.609,-5.376 0.277,-6.553C0.422,-6.766 0.477,-6.902 0.39,-6.96C0.351,-6.99 0.282,-6.981 0.187,-6.956C-1.141,-6.541 -7.374,-1.079 -7.597,-3.677C-7.77,-5.681 -2.812,-7.231 0,-7.939" style="fill:rgb(42,170,226);fill-rule:nonzero;"/>
                                    </g>
                                    <g transform="matrix(1,0,0,1,323.23,333.425)">
                                        <path d="M0,-4.238C-0.495,-5.271 -0.792,-5.999 -0.792,-5.999L-0.814,-7.181C-0.814,-7.181 0.868,-6.467 2.777,-5.538C5.602,-4.157 8.921,-2.312 8.015,-1.607C6.714,-0.596 2.632,-4.14 1.306,-4.781C1.068,-4.882 0.924,-4.908 0.885,-4.811C0.863,-4.767 0.885,-4.702 0.928,-4.614C1.594,-3.392 8.167,1.656 5.662,2.382C3.73,2.943 1.243,-1.618 0,-4.238" style="fill:rgb(42,170,226);fill-rule:nonzero;"/>
                                    </g>
                                    <g transform="matrix(1,0,0,1,203.386,286.492)">
                                        <path d="M0,6.007C0.425,7.413 0.673,8.388 0.673,8.388L0.601,9.847C0.601,9.847 -1.067,8.505 -2.953,6.837C-5.74,4.362 -8.999,1.181 -8.012,0.566C-6.597,-0.318 -2.692,5.161 -1.382,6.314C-1.147,6.502 -1.001,6.574 -0.953,6.467C-0.927,6.419 -0.944,6.332 -0.982,6.213C-1.568,4.528 -7.908,-3.484 -5.28,-3.685C-3.254,-3.84 -1.066,2.446 0,6.007" style="fill:rgb(139,215,248);fill-rule:nonzero;"/>
                                    </g>
                                    <g transform="matrix(1,0,0,1,352.401,258.704)">
                                        <path d="M0,-5.162C-7.093,3.169 -14.869,6.182 -14.869,6.182C-14.869,6.182 -10.258,-3.315 -8.002,-11.344C-8.002,-11.344 -17.021,-1.493 -23.936,1.621" style="fill:none;fill-rule:nonzero;stroke:rgb(6,123,162);stroke-width:1.11px;stroke-linejoin:round;"/>
                                    </g>
                                    <g transform="matrix(1,0,0,1,227.161,247.974)">
                                        <path d="M0,13.785C-6.166,10.857 -9.365,6.527 -9.365,6.527C-9.365,6.527 -2.982,7.682 2.107,7.629C2.107,7.629 -5.3,3.77 -8.398,0" style="fill:none;fill-rule:nonzero;stroke:rgb(6,123,162);stroke-width:1.11px;stroke-linejoin:round;"/>
                                    </g>
                                    <g transform="matrix(1,0,0,1,266.986,272.035)">
                                        <path d="M0,30.937C0,30.937 1.867,25.708 2.604,17.202C2.604,17.202 -3.22,24.251 -5.821,24.689C-5.821,24.689 -1.18,8.875 -4.696,0C-4.696,0 -8.135,12.647 -12.502,14.61C-12.502,14.61 -10.945,5.82 -12.908,1.453" style="fill:none;fill-rule:nonzero;stroke:rgb(6,123,162);stroke-width:1.11px;stroke-linejoin:round;"/>
                                    </g>
                                    <g transform="matrix(-0.913155,-0.407612,-0.407612,0.913155,274.583,410.161)">
                                        <path d="M-2.132,-10.972C-2.132,-10.972 -2.819,-9.986 -5.436,-3.526C-4.485,-2.181 -3.381,-0.814 -2.132,0.546L-0.726,-9.869L-2.132,-10.972Z" style="fill:rgb(16,68,76);fill-rule:nonzero;"/>
                                    </g>
                                    <g transform="matrix(1,0,0,1,255.858,440.042)">
                                        <path d="M0,-30.794C1.682,-18.298 7.094,-4.869 11.584,4.618C13.296,8.237 18.707,7.196 18.963,3.201C20.113,-14.684 19.685,-29.569 24.711,-39.031" style="fill:rgb(12,114,186);fill-rule:nonzero;"/>
                                    </g>
                                    <g transform="matrix(1,0,0,1,231.797,151.293)">
                                        <path d="M0,-12.785C0,-12.785 1.47,-7.118 -0.65,-2.597L-0.654,-2.593C-0.793,-2.523 -3.871,-0.967 -8.354,0C-5.757,-2.475 -2.749,-6.594 -1.734,-12.351L0,-12.785Z" style="fill:rgb(16,68,76);fill-rule:nonzero;"/>
                                    </g>
                                    <g transform="matrix(1,0,0,1,239.31,150.863)">
                                        <path d="M0,11.303C0.173,10.37 0.347,9.348 0.507,8.238C0.507,8.238 0.447,8.316 0.316,8.454C3.26,4.574 4.843,0 4.843,0L5.276,1.301C5.012,4.995 2.181,8.849 0,11.303" style="fill:rgb(16,68,76);fill-rule:nonzero;"/>
                                    </g>
                                    <g transform="matrix(0.845724,-0.533621,-0.533621,-0.845724,253.666,154.754)">
                                        <path d="M-1.57,-0.381C-1.358,1.068 -1.26,2.995 -1.898,4.26L-1.57,5.591C-1.57,5.591 -0.531,3.694 -0.079,1.446C-0.223,1.194 -0.683,0.473 -1.57,-0.381" style="fill:rgb(16,68,76);fill-rule:nonzero;"/>
                                    </g>
                                    <g transform="matrix(1,0,0,1,269.297,165.513)">
                                        <path d="M0,-10.747C-0.438,-5.935 -1.83,-1.669 -3.1,1.379C-3.516,0.841 -3.928,0.269 -4.335,-0.343L-4.461,-0.186C-2.137,-5.558 -0.793,-12.126 -0.793,-12.126L0,-10.747Z" style="fill:rgb(16,68,76);fill-rule:nonzero;"/>
                                    </g>
                                    <g transform="matrix(0,-1,-1,0,132.856,68.2229)">
                                        <path d="M-4.196,-4.196C-7.322,-4.196 -9.856,-2.317 -9.856,-0C-9.856,2.317 -7.322,4.196 -4.196,4.196C-1.07,4.196 1.464,2.317 1.464,-0C1.464,-2.317 -1.07,-4.196 -4.196,-4.196" style="fill:rgb(193,40,45);fill-rule:nonzero;"/>
                                    </g>
                                    <g transform="matrix(0,-1,-1,0,132.91,62.813)">
                                        <path d="M-1.126,-1.126C-1.966,-1.126 -2.645,-0.621 -2.645,0.001C-2.645,0.623 -1.966,1.126 -1.126,1.126C-0.287,1.126 0.394,0.623 0.394,0.001C0.394,-0.621 -0.287,-1.126 -1.126,-1.126" style="fill:rgb(193,40,45);fill-rule:nonzero;"/>
                                    </g>
                                    <g transform="matrix(-1,0,0,1,218.27,105.689)">
                                        <path d="M-0.001,-2.861C-1.318,-2.861 -2.385,-2.22 -2.385,-1.43C-2.385,-0.64 -1.318,0 -0.001,0C1.316,0 2.384,-0.64 2.384,-1.43C2.384,-2.22 1.316,-2.861 -0.001,-2.861" style="fill:rgb(241,91,39);fill-rule:nonzero;"/>
                                    </g>
                                    <g transform="matrix(-1,0,0,1,217.664,101.788)">
                                        <path d="M0,-2.861C-0.742,-2.861 -1.344,-2.22 -1.344,-1.43C-1.344,-0.64 -0.742,0 0,0C0.742,0 1.344,-0.64 1.344,-1.43C1.344,-2.22 0.742,-2.861 0,-2.861" style="fill:rgb(241,91,39);fill-rule:nonzero;"/>
                                    </g>
                                    <g transform="matrix(-0.592952,0.805238,0.805238,0.592952,266.994,206.046)">
                                        <path d="M-11.972,-6.052C-7.895,-4.576 3.059,-6.052 3.059,-6.052" style="fill:none;fill-rule:nonzero;stroke:rgb(6,123,162);stroke-width:1.11px;stroke-linejoin:round;"/>
                                    </g>
                                    <g transform="matrix(-0.592909,0.80527,0.80527,0.592909,274.762,204.545)">
                                        <path d="M-11.971,-6.052C-7.895,-4.577 3.059,-6.052 3.059,-6.052" style="fill:none;fill-rule:nonzero;stroke:rgb(6,123,162);stroke-width:1.11px;stroke-linejoin:round;"/>
                                    </g>
                                    <g transform="matrix(-0.658023,0.752997,0.752997,0.658023,178.533,124.357)">
                                        <path d="M-11.47,-5.209L2.366,-5.209" style="fill:none;fill-rule:nonzero;stroke:rgb(193,40,45);stroke-width:1.11px;stroke-linejoin:round;"/>
                                    </g>
                                    <g transform="matrix(0.653712,0.756743,0.756743,-0.653712,178.61,112.351)">
                                        <path d="M-2.393,-5.23L11.428,-5.23" style="fill:none;fill-rule:nonzero;stroke:rgb(193,40,45);stroke-width:1.11px;stroke-linejoin:round;"/>
                                    </g>
                                    <g transform="matrix(-24.1062,-66.2313,-66.2313,24.1062,339.553,134.648)">
                                        <path d="M0.998,-0.69C1.021,-0.476 0.841,-0.295 0.627,-0.316L0.401,-0.339C0.385,-0.341 0.37,-0.339 0.357,-0.334C0.317,-0.319 0.288,-0.279 0.292,-0.232C0.301,-0.126 0.409,-0.057 0.51,-0.094L0.576,-0.117C0.675,-0.154 0.782,-0.1 0.816,-0.006C0.822,0.009 0.825,0.024 0.827,0.04C0.835,0.122 0.763,0.19 0.681,0.176L0.446,0.137C0.385,0.126 0.329,0.174 0.33,0.236L0.334,0.404C0.335,0.444 0.372,0.473 0.41,0.464L0.676,0.406C0.725,0.395 0.773,0.424 0.79,0.469C0.793,0.477 0.795,0.485 0.795,0.493C0.801,0.552 0.754,0.603 0.695,0.602L0.445,0.597C0.39,0.596 0.345,0.64 0.344,0.695L0.343,0.844L0.343,0.949L0.227,0.991L0.218,0.941L0.201,0.849L0.007,-0.217C-0.026,-0.4 0.055,-0.584 0.211,-0.684L0.552,-0.901C0.659,-0.97 0.8,-0.963 0.898,-0.88C0.935,-0.849 0.964,-0.808 0.982,-0.759C0.99,-0.738 0.995,-0.715 0.998,-0.69Z" style="fill:url(#_Linear5);fill-rule:nonzero;"/>
                                    </g>
                                    <g transform="matrix(1,0,0,1,274.552,134.641)">
                                        <path d="M0,7.574L-6.122,8.623L-6.122,0.182L-4.86,-0.286L-2.801,-1.049L0,7.574Z" style="fill:rgb(193,40,45);fill-rule:nonzero;"/>
                                    </g>
                                    <g transform="matrix(0,-1,-1,0,380.064,63.2907)">
                                        <path d="M-1.951,-1.951C-3.747,-1.951 -5.203,-1.077 -5.203,-0C-5.203,1.077 -3.747,1.951 -1.951,1.951C-0.155,1.951 1.3,1.077 1.3,-0C1.3,-1.077 -0.155,-1.951 -1.951,-1.951" style="fill:rgb(193,40,45);fill-rule:nonzero;"/>
                                    </g>
                                    <g transform="matrix(0,-1,-1,0,383.012,69.8805)">
                                        <path d="M-1.43,-1.431C-2.747,-1.431 -3.815,-0.79 -3.815,0C-3.815,0.79 -2.747,1.43 -1.43,1.43C-0.114,1.43 0.954,0.79 0.954,0C0.954,-0.79 -0.114,-1.431 -1.43,-1.431" style="fill:rgb(193,40,45);fill-rule:nonzero;"/>
                                    </g>
                                    <g transform="matrix(0,-1,-1,0,313.648,87.2213)">
                                        <path d="M-1.431,-1.43C-2.747,-1.43 -3.815,-0.79 -3.815,0.001C-3.815,0.791 -2.747,1.431 -1.431,1.431C-0.114,1.431 0.954,0.791 0.954,0.001C0.954,-0.79 -0.114,-1.43 -1.431,-1.43" style="fill:rgb(241,91,39);fill-rule:nonzero;"/>
                                    </g>
                                    <g transform="matrix(0,-1,-1,0,347.029,72.4816)">
                                        <path d="M-1.43,-1.43C-3.944,-1.43 -5.983,-0.79 -5.983,0C-5.983,0.791 -3.944,1.43 -1.43,1.43C1.083,1.43 3.121,0.791 3.121,0C3.121,-0.79 1.083,-1.43 -1.43,-1.43" style="fill:rgb(241,91,39);fill-rule:nonzero;"/>
                                    </g>
                                    <g transform="matrix(-0.995534,-0.094401,-0.094401,0.995534,284.558,102.134)">
                                        <path d="M-0.13,-2.769C-0.958,-2.768 -1.628,-2.147 -1.628,-1.381C-1.628,-0.615 -0.958,0.006 -0.13,0.006C0.697,0.006 1.367,-0.615 1.368,-1.382C1.367,-2.147 0.697,-2.769 -0.13,-2.769" style="fill:rgb(241,91,39);fill-rule:nonzero;"/>
                                    </g>
                                    <g transform="matrix(-0.5832,0.812329,0.812329,0.5832,377.28,94.2918)">
                                        <path d="M-13.045,-6.694L3.434,-6.694" style="fill:none;fill-rule:nonzero;stroke:rgb(193,40,45);stroke-width:1.11px;stroke-linejoin:round;"/>
                                    </g>
                                    <g transform="matrix(0.578773,0.815489,0.815489,-0.578773,377.365,80.874)">
                                        <path d="M-3.471,-6.72L13.009,-6.719" style="fill:none;fill-rule:nonzero;stroke:rgb(193,40,45);stroke-width:1.11px;stroke-linejoin:round;"/>
                                    </g>
                                    <g transform="matrix(1,0,0,1,266.046,151.08)">
                                        <path d="M0,-20.376L5.203,-17.774L2.601,-13.006L6.069,-6.937L4.769,0L-6.503,-7.369L0,-20.376Z" style="fill:rgb(17,85,102);fill-rule:nonzero;"/>
                                    </g>
                                    <g transform="matrix(1,0,0,1,254.04,149.213)">
                                        <path d="M0,-22.345C0,-22.345 5.552,-22.281 13.786,-20.017C13.786,-20.017 5.151,-17.003 3.838,-14.717C3.838,-14.717 20.278,-13.576 27.381,-7.197C27.381,-7.197 14.327,-8.365 10.969,-4.95C10.969,-4.95 19.752,-3.358 23.167,0" style="fill:none;fill-rule:nonzero;stroke:rgb(16,68,76);stroke-width:1.11px;stroke-linejoin:round;"/>
                                    </g>
                                </g>
                            </g>
                        </g>
                    </g>
                </g>
            </g>
            <g transform="matrix(0.025,0,0,0.025,0.0412391,-2.1587)">
                <g transform="matrix(0.643311,-0.765605,0.765605,0.643311,-393.355,318.632)">
                    <text x="145.282px" y="581.469px" style="font-family:'FranklinGothicBlackSSiBlack', 'Franklin Gothic Black SSi', sans-serif;font-size:200px;fill:rgb(37,82,154);">W</text>
                </g>
                <g transform="matrix(0.804847,-0.593482,0.593482,0.804847,-211.863,246.517)">
                    <text x="268.912px" y="445.409px" style="font-family:'FranklinGothicBlackSSiBlack', 'Franklin Gothic Black SSi', sans-serif;font-size:200px;fill:rgb(37,82,154);">I</text>
                </g>
                <g transform="matrix(0.894745,-0.446577,0.446577,0.894745,-147.247,185.168)">
                    <text x="319.194px" y="404.955px" style="font-family:'FranklinGothicBlackSSiBlack', 'Franklin Gothic Black SSi', sans-serif;font-size:200px;fill:rgb(37,82,154);">S</text>
                </g>
                <g transform="matrix(0.973214,-0.2299,0.2299,0.973214,-67.8817,109.965)">
                    <text x="437.971px" y="346.295px" style="font-family:'FranklinGothicBlackSSiBlack', 'Franklin Gothic Black SSi', sans-serif;font-size:200px;fill:rgb(37,82,154);">C</text>
                </g>
                <g transform="matrix(1,-0.000720241,0.000720241,1,-0.227171,0.408538)">
                    <text x="567.11px" y="315.613px" style="font-family:'FranklinGothicBlackSSiBlack', 'Franklin Gothic Black SSi', sans-serif;font-size:200px;fill:rgb(37,82,154);">O</text>
                </g>
                <g transform="matrix(0.972884,0.231293,-0.231293,0.972884,92.1383,-155.176)">
                    <text x="707.88px" y="315.373px" style="font-family:'FranklinGothicBlackSSiBlack', 'Franklin Gothic Black SSi', sans-serif;font-size:200px;fill:rgb(37,82,154);">N</text>
                </g>
                <g transform="matrix(0.893462,0.44914,-0.44914,0.893462,246.439,-342.072)">
                    <text x="844.265px" y="348.426px" style="font-family:'FranklinGothicBlackSSiBlack', 'Franklin Gothic Black SSi', sans-serif;font-size:200px;fill:rgb(37,82,154);">S</text>
                </g>
                <g transform="matrix(0.796989,0.603994,-0.603994,0.796989,443.06,-496.983)">
                    <text x="960.837px" y="410.6px" style="font-family:'FranklinGothicBlackSSiBlack', 'Franklin Gothic Black SSi', sans-serif;font-size:200px;fill:rgb(37,82,154);">I</text>
                </g>
                <g transform="matrix(0.665732,0.746191,-0.746191,0.665732,672.563,-607.906)">
                    <text x="1014.8px" y="446.732px" style="font-family:'FranklinGothicBlackSSiBlack', 'Franklin Gothic Black SSi', sans-serif;font-size:200px;fill:rgb(37,82,154);">N</text>
                </g>
            </g>
        </g>
    </g>
    <defs>
        <linearGradient id="_Linear2" x1="0" y1="0" x2="1" y2="0" gradientUnits="userSpaceOnUse" gradientTransform="matrix(1,0,0,1,0,-0.0156892)"><stop offset="0" style="stop-color:rgb(212,51,39);stop-opacity:1"/><stop offset="0.04" style="stop-color:rgb(212,51,39);stop-opacity:1"/><stop offset="1" style="stop-color:rgb(237,85,60);stop-opacity:1"/></linearGradient>
        <linearGradient id="_Linear3" x1="0" y1="0" x2="1" y2="0" gradientUnits="userSpaceOnUse" gradientTransform="matrix(1,0,0,1,0,-0.0247333)"><stop offset="0" style="stop-color:rgb(12,114,186);stop-opacity:1"/><stop offset="0.05" style="stop-color:rgb(12,114,186);stop-opacity:1"/><stop offset="1" style="stop-color:rgb(42,170,226);stop-opacity:1"/></linearGradient>
        <linearGradient id="_Linear4" x1="0" y1="0" x2="1" y2="0" gradientUnits="userSpaceOnUse" gradientTransform="matrix(1,5.55112e-17,-5.55112e-17,1,0,-0.020637)"><stop offset="0" style="stop-color:rgb(42,170,226);stop-opacity:1"/><stop offset="1" style="stop-color:rgb(139,215,248);stop-opacity:1"/><stop offset="1" style="stop-color:rgb(139,215,248);stop-opacity:1"/></linearGradient>
        <linearGradient id="_Linear5" x1="0" y1="0" x2="1" y2="0" gradientUnits="userSpaceOnUse" gradientTransform="matrix(1,0,0,1,0,0.0216395)"><stop offset="0" style="stop-color:rgb(212,51,39);stop-opacity:1"/><stop offset="0.04" style="stop-color:rgb(212,51,39);stop-opacity:1"/><stop offset="1" style="stop-color:rgb(237,85,60);stop-opacity:1"/></linearGradient>
    </defs>
</svg>
