<?xml version="1.0" encoding="UTF-8" standalone="no"?>
<!DOCTYPE svg PUBLIC "-//W3C//DTD SVG 1.1//EN" "http://www.w3.org/Graphics/SVG/1.1/DTD/svg11.dtd">
<svg width="100%" height="100%" viewBox="0 0 1280 1280" version="1.1" xmlns="http://www.w3.org/2000/svg" xmlns:xlink="http://www.w3.org/1999/xlink" xml:space="preserve" xmlns:serif="http://www.serif.com/" style="fill-rule:evenodd;clip-rule:evenodd;stroke-linecap:round;stroke-linejoin:round;stroke-miterlimit:10;">
    <g transform="matrix(40,0,0,40,0,0)">
        <rect id="Artboard1" x="0" y="0" width="32" height="32" style="fill:none;"/>
        <g id="Artboard11" serif:id="Artboard1">
            <g transform="matrix(0.025,0,0,0.025,0.0412391,-2.1587)">
                <g transform="matrix(0.900429,-0.435003,0.435003,0.900429,-138.083,186.409)">
                    <text x="338.147px" y="394.831px" style="font-family:'FranklinGothicBlackSSiBlack', 'Franklin Gothic Black SSi', sans-serif;font-size:200px;fill:rgb(37,82,154);">T</text>
                </g>
                <g transform="matrix(0.967876,-0.251428,0.251428,0.967876,-74.2671,118.956)">
                    <text x="428.39px" y="350.115px" style="font-family:'FranklinGothicBlackSSiBlack', 'Franklin Gothic Black SSi', sans-serif;font-size:200px;fill:rgb(37,82,154);">E</text>
                </g>
                <g transform="matrix(0.999272,-0.0381534,0.0381534,0.999272,-11.7623,21.0148)">
                    <text x="544.715px" y="318.686px" style="font-family:'FranklinGothicBlackSSiBlack', 'Franklin Gothic Black SSi', sans-serif;font-size:200px;fill:rgb(37,82,154);">X</text>
                </g>
                <g transform="matrix(0.982191,0.187883,-0.187883,0.982191,71.1271,-123.152)">
                    <text x="685.197px" y="313.623px" style="font-family:'FranklinGothicBlackSSiBlack', 'Franklin Gothic Black SSi', sans-serif;font-size:200px;fill:rgb(37,82,154);">A</text>
                </g>
                <g transform="matrix(0.916276,0.400548,-0.400548,0.916276,203.903,-298.228)">
                    <text x="815.334px" y="338.635px" style="font-family:'FranklinGothicBlackSSiBlack', 'Franklin Gothic Black SSi', sans-serif;font-size:200px;fill:rgb(37,82,154);">S</text>
                </g>
            </g>
            <g id="THAT-Longhorn.svg" transform="matrix(0.0068779,0,0,0.0068779,16.0205,18.5108)">
                <g transform="matrix(1,0,0,1,-1215,-1732.5)">
                    <clipPath id="_clip1">
                        <rect x="0" y="0" width="2430" height="3465"/>
                    </clipPath>
                    <g clip-path="url(#_clip1)">
                        <g transform="matrix(1,0,0,1,-2132.24,-3789.12)">
                            <g transform="matrix(0,4.16667,4.16667,0,3424.98,6675.3)">
                                <path d="M127.372,-127.372C133.701,-127.372 138.831,-70.345 138.831,-0.001C138.831,70.346 133.701,127.372 127.372,127.372C121.043,127.372 115.913,70.346 115.913,-0.001C115.913,-70.345 121.043,-127.372 127.372,-127.372" style="fill:rgb(231,168,83);fill-rule:nonzero;"/>
                            </g>
                            <g transform="matrix(4.16667,0,0,4.16667,3533.33,7164.47)">
                                <path d="M0,-126.076C3.967,-118.619 7.184,-105 9.776,-89.001C11.168,-80.434 12.385,-71.169 13.434,-61.808C15.487,-43.579 16.915,-24.954 17.859,-10.242C18.379,-2.115 29.379,0 32.861,-7.36C40.089,-22.627 55.057,-53.32 57.481,-85.996C57.912,-91.84 57.939,-97.746 57.463,-103.643C57.234,-106.428 56.89,-109.205 56.414,-111.973L0,-126.076Z" style="fill:rgb(79,58,43);fill-rule:nonzero;"/>
                            </g>
                            <g transform="matrix(-0.833099,4.08253,4.08253,0.833099,3710.07,6785.19)">
                                <path d="M8.512,-31.579C16.629,-28.501 22.992,-26.177 31.954,-23.278C28.64,-15.857 18.601,-5.455 8.512,3.426C4.371,1.681 5.058,2.721 5.058,2.721L8.512,-31.579Z" style="fill:rgb(56,39,27);fill-rule:nonzero;"/>
                            </g>
                            <g transform="matrix(4.16667,0,0,4.16667,2740.04,6681.65)">
                                <path d="M0,-14.589C0.308,-13.831 13.91,18.528 48.78,-3.086C52.8,-5.58 57.102,-8.789 61.694,-12.844L61.051,-14.686L54.642,-33.117C53.725,-31.593 52.765,-30.085 51.76,-28.622C48.877,-24.417 45.651,-20.512 42.187,-17.145C29.459,-4.769 13.557,0.229 0,-14.589" style="fill:rgb(79,58,43);fill-rule:nonzero;"/>
                            </g>
                            <g transform="matrix(4.16667,0,0,4.16667,2915.82,6620.97)">
                                <path d="M0,-2.582L6.593,11.477C10.613,8.983 14.914,5.774 19.507,1.72L18.863,-0.123L9.573,-14.059C6.69,-9.854 3.464,-5.949 0,-2.582" style="fill:rgb(79,58,43);fill-rule:nonzero;"/>
                            </g>
                            <g transform="matrix(4.16667,0,0,4.16667,3330.74,5621.98)">
                                <path d="M0,-115.331C2.336,-101.554 6.928,-88.005 13.301,-75.171C21.182,-59.27 31.794,-44.47 44.197,-31.706C70.2,-4.953 104.075,12.835 137.315,12.993C199.203,13.293 198.718,-63.113 120.893,-49.282C81.465,-42.275 57.595,-52.368 40.829,-69.283C35.047,-75.11 30.12,-81.738 25.686,-88.763C17.568,-101.607 11.115,-115.745 4.205,-128.624L0,-115.331Z" style="fill:rgb(79,58,43);fill-rule:nonzero;"/>
                            </g>
                            <g transform="matrix(4.16667,0,0,4.16667,3514.89,5239.83)">
                                <path d="M0,60.01C-3.42,47.951 -3.702,32.764 -3.367,22.433C-9.15,16.606 -14.077,9.978 -18.511,2.953L-24.664,0L-30.896,16.545C-23.015,32.446 -12.402,47.246 0,60.01" style="fill:rgb(56,39,27);fill-rule:nonzero;"/>
                            </g>
                            <g transform="matrix(812.392,1670.72,1670.72,-812.392,3121.75,5537.08)">
                                <path d="M-0.395,0.267C-0.376,0.219 -0.355,0.175 -0.332,0.135C-0.238,-0.039 -0.121,-0.153 -0.002,-0.226C0.018,-0.238 0.037,-0.249 0.057,-0.259C0.309,-0.386 0.557,-0.343 0.62,-0.312C0.625,-0.31 0.63,-0.307 0.635,-0.304C0.641,-0.3 0.647,-0.295 0.654,-0.289C0.723,-0.229 0.794,-0.092 0.748,0.037C0.729,0.088 0.692,0.139 0.629,0.182C0.409,0.334 0.238,0.209 0.105,0.195C0.089,0.194 0.073,0.194 0.058,0.196C-0.052,0.213 -0.101,0.283 -0.144,0.331C-0.146,0.334 -0.152,0.341 -0.153,0.342C-0.161,0.35 -0.169,0.357 -0.177,0.363L-0.221,0.426L-0.43,0.341L-0.395,0.267Z" style="fill:url(#_Linear2);fill-rule:nonzero;"/>
                            </g>
                            <g transform="matrix(3.90936,1.44153,1.44153,-3.90936,2677.48,5806.21)">
                                <path d="M16.126,-3.616C25.746,33.583 20.871,88.69 20.871,88.69L16.126,88.82L7.17,25.54C9.793,15.469 12.802,5.755 16.126,-3.616" style="fill:rgb(56,39,27);fill-rule:nonzero;"/>
                            </g>
                            <g transform="matrix(4.16667,0,0,4.16667,3201.35,6305.95)">
                                <path d="M0,-73.474L13.565,-75.17L0.819,-80.268C2.228,-87.125 5.36,-93.872 10.039,-99.851C25.906,-120.125 26.787,-135.11 33.839,-157.146C36.901,-166.708 44.28,-173.773 53.521,-177.708L69.098,-150.095L62.297,-180.388C67.907,-181.488 73.86,-181.579 79.746,-180.532C111.188,-129.83 194.716,-85.518 176.637,32.37C171.472,66.086 158.567,90.687 141.528,108.105C121.184,107.647 102.065,93.244 89.372,79.969C80.725,70.929 71.027,67.323 61.372,63.913L75.268,31.488L59.402,52.643L62.928,35.895L44.81,57.136C38.694,53.862 32.873,49.352 27.669,42.066C10.039,17.385 50.587,-25.807 23.261,-38.148C15.41,-41.694 9.68,-46.626 5.861,-52.33L33.839,-61.948L-0.003,-70.588C-0.041,-71.547 -0.034,-72.509 0,-73.474" style="fill:rgb(160,118,91);fill-rule:nonzero;"/>
                            </g>
                            <g transform="matrix(419.208,456.781,456.781,-419.208,2328.43,5558.88)">
                                <path d="M0.298,-0.06C0.191,-0.505 0.779,-0.641 0.759,-0.047C0.739,0.548 0.298,1.041 0.298,1.041L0.181,1.089C0.24,0.855 0.405,0.385 0.298,-0.06Z" style="fill:url(#_Linear3);fill-rule:nonzero;"/>
                            </g>
                            <g transform="matrix(4.16667,0,0,4.16667,2868.84,5198.07)">
                                <path d="M0,9.213C2.281,8.738 3.824,8.322 3.824,8.322L5.762,6.898C5.762,6.898 2.532,5.061 -1.325,3.121C-7.041,0.259 -14.118,-2.83 -14.139,-0.495C-14.168,2.855 -3.404,5.078 -0.733,6.434C-0.278,6.692 -0.058,6.893 -0.165,7.076C-0.208,7.165 -0.341,7.211 -0.537,7.249C-3.334,7.68 -19.601,3.284 -17.684,8.229C-16.206,12.043 -5.768,10.436 0,9.213" style="fill:rgb(97,72,55);fill-rule:nonzero;"/>
                            </g>
                            <g transform="matrix(4.16667,0,0,4.16667,3786.88,5804.87)">
                                <path d="M0,12.214C-0.865,15.073 -1.368,17.056 -1.368,17.056L-1.221,20.021C-1.221,20.021 2.171,17.293 6.003,13.902C11.671,8.87 18.296,2.401 16.29,1.15C13.413,-0.646 5.475,10.495 2.811,12.837C2.333,13.221 2.036,13.368 1.938,13.149C1.885,13.053 1.92,12.876 1.997,12.633C3.188,9.208 16.08,-7.084 10.736,-7.492C6.616,-7.807 2.169,4.975 0,12.214" style="fill:rgb(160,118,91);fill-rule:nonzero;"/>
                            </g>
                            <g transform="matrix(4.16667,0,0,4.16667,3306.48,4240.94)">
                                <path d="M0,12.214C-0.865,15.073 -1.368,17.056 -1.368,17.056L-1.221,20.021C-1.221,20.021 2.171,17.293 6.003,13.902C11.671,8.87 18.296,2.401 16.29,1.15C13.413,-0.646 5.475,10.495 2.811,12.837C2.333,13.221 2.036,13.368 1.938,13.15C1.885,13.053 1.92,12.876 1.997,12.633C3.188,9.208 16.08,-7.084 10.736,-7.492C6.616,-7.807 2.169,4.975 0,12.214" style="fill:rgb(97,72,55);fill-rule:nonzero;"/>
                            </g>
                            <g transform="matrix(4.16667,0,0,4.16667,2363.61,5728.18)">
                                <path d="M0,-10.496C14.422,6.443 30.233,12.568 30.233,12.568C30.233,12.568 20.857,-6.741 16.27,-23.064C16.27,-23.064 34.607,-3.036 48.666,3.296" style="fill:none;fill-rule:nonzero;stroke:rgb(56,39,27);stroke-width:2.91px;"/>
                            </g>
                            <g transform="matrix(4.16667,0,0,4.16667,3668.62,5617.76)">
                                <path d="M0,2.934C11.925,10.032 22.86,10.53 22.86,10.53C22.86,10.53 13.681,1.061 8.01,-7.596C8.01,-7.596 22.912,0.546 32.788,1.507" style="fill:none;fill-rule:nonzero;stroke:rgb(56,39,27);stroke-width:2.91px;"/>
                            </g>
                            <g transform="matrix(4.16667,0,0,4.16667,3924.48,6525.02)">
                                <path d="M0,-65.275C0,-65.275 7.134,-56.527 14.333,-40.727C14.333,-40.727 -1.623,-50.274 -6.903,-49.343C-6.903,-49.343 12.744,-22.2 12.043,-2.801C12.043,-2.801 -3.147,-24.696 -12.851,-25.487C-12.851,-25.487 -3.888,-9.704 -4.679,0" style="fill:none;fill-rule:nonzero;stroke:rgb(56,39,27);stroke-width:2.91px;"/>
                            </g>
                            <g transform="matrix(-3.80477,1.69848,1.69848,3.80477,3183.7,6852.56)">
                                <path d="M4.335,-22.308C4.335,-22.308 5.731,-20.305 11.055,-7.169C9.119,-4.432 6.875,-1.654 4.335,1.11L1.474,-20.066L4.335,-22.308Z" style="fill:rgb(56,39,27);fill-rule:nonzero;"/>
                            </g>
                            <g transform="matrix(399.62,222.919,222.919,-399.62,3145.35,6914.19)">
                                <path d="M0.302,-0.379C0.342,-0.441 0.439,-0.409 0.434,-0.335C0.421,-0.141 0.388,0.125 0.302,0.342L-0.172,0.252C-0.005,0.145 0.122,-0.1 0.302,-0.379Z" style="fill:url(#_Linear4);fill-rule:nonzero;"/>
                            </g>
                            <g transform="matrix(4.16667,0,0,4.16667,3669.71,7121.28)">
                                <path d="M0,17.692L-13.18,17.692C-15.592,17.692 -17.42,15.525 -17.003,13.159L-14.687,0L1.507,0L3.824,13.159C4.24,15.525 2.412,17.692 0,17.692" style="fill:rgb(51,36,26);fill-rule:nonzero;"/>
                            </g>
                            <g transform="matrix(4.16667,0,0,4.16667,3236.92,7127.55)">
                                <path d="M0,18.563L-13.142,17.574C-15.548,17.393 -17.208,15.095 -16.615,12.767L-13.318,-0.181L2.83,1.034L4.153,14.329C4.391,16.72 2.405,18.744 0,18.563" style="fill:rgb(51,36,26);fill-rule:nonzero;"/>
                            </g>
                            <g transform="matrix(4.16667,0,0,4.16667,2885.48,5263.8)">
                                <g>
                                    <clipPath id="_clip5">
                                        <path d="M86.729,-145.026C71.444,-127.864 57.861,-110.816 45.855,-93.936C-5.385,-22.008 -28.32,46.861 -34.358,108.696C-35.381,119.053 -35.919,129.208 -36.042,139.151C-37.567,264.795 27.961,355.957 52.351,375.041C54.221,376.504 56.292,377.915 58.557,379.263C61.44,380.973 64.622,382.595 68.068,384.085C105.742,400.4 174.55,401.961 217.336,358.223C234.375,340.804 247.28,316.203 252.445,282.487C270.524,164.598 186.996,120.288 155.554,69.585C151.728,63.424 148.678,57.156 146.669,50.66C131.992,3.149 150.556,-29.959 161.513,-56.579C162.139,-58.087 162.729,-59.567 163.302,-61.04C163.47,-61.481 163.628,-61.921 163.796,-62.362C165.603,-67.192 167.039,-71.811 167.824,-76.271L184.572,-106.241L165.206,-123.563L150.811,-136.423L109.647,-173.233L86.729,-145.026Z"/>
                                    </clipPath>
                                    <g clip-path="url(#_clip5)">
                                        <path d="M0,-131.272C2.581,-114.121 9.222,-88.481 27.535,-63.635C61.203,-17.956 111.305,-6.178 131.148,-3.024C150.163,0 166.237,-0.943 176.945,-2.262C170.328,-8.283 163.04,-16.1 156.294,-26.041C138.428,-52.369 134.203,-79.087 133.095,-94.202L0,-131.272Z" style="fill:rgb(74,53,39);fill-rule:nonzero;"/>
                                    </g>
                                </g>
                            </g>
                            <g transform="matrix(39.8796,0,0,-39.8796,3508.92,5233.06)">
                                <path d="M-1.131,0.978C-1.131,0.978 -0.912,0.657 -0.64,0.297C-0.235,-0.234 0.287,-0.849 0.396,-0.631C0.553,-0.318 -0.355,0.386 -0.543,0.635C-0.574,0.681 -0.585,0.71 -0.567,0.722C-0.559,0.728 -0.544,0.726 -0.524,0.721C-0.242,0.633 1.082,-0.527 1.13,0.025C1.167,0.45 0.113,0.779 -0.484,0.93C-0.72,0.99 -0.884,1.022 -0.884,1.022L-1.131,0.978Z" style="fill:url(#_Radial6);fill-rule:nonzero;"/>
                            </g>
                            <g transform="matrix(4.16667,0,0,4.16667,3640.85,4375.63)">
                                <path d="M0,44.308C-4.542,44.592 -8.543,43.278 -12.012,41.132C-22.802,34.425 -28.343,19.562 -28.343,19.562L-31.789,7.768L-33.236,2.778C-33.12,3.109 -32.727,4.048 -31.653,5.142C-28.941,7.922 -21.909,11.767 -4.066,9.813C5.522,8.77 18.217,6.054 35.048,0.593C37.735,-0.284 18.678,43.119 0,44.308" style="fill:rgb(228,186,155);fill-rule:nonzero;"/>
                            </g>
                            <g transform="matrix(4.16667,0,0,4.16667,3590.81,4397.06)">
                                <path d="M0,35.99C-10.79,29.282 -16.331,14.42 -16.331,14.42L-19.777,2.625L-19.641,0C-16.929,2.78 -9.897,6.624 7.946,4.671C-0.245,15.151 -1.352,26.518 0,35.99" style="fill:rgb(103,76,57);fill-rule:nonzero;"/>
                            </g>
                            <g transform="matrix(622.178,0,0,-622.178,3366.93,5008.34)">
                                <path d="M-0.35,1.182C-0.381,1.153 -0.409,1.069 -0.424,1.02C-0.431,0.998 -0.434,0.983 -0.434,0.983C-0.434,0.983 -0.436,0.983 -0.441,0.981C-0.475,0.973 -0.643,0.933 -0.776,0.951C-0.924,0.971 -1.036,1.061 -1.036,1.061C-1.037,1.03 -1.035,1.001 -1.032,0.974C-0.999,0.712 -0.798,0.611 -0.736,0.594C-0.727,0.592 -0.718,0.593 -0.707,0.597C-0.635,0.625 -0.525,0.776 -0.483,0.749C-0.482,0.748 -0.481,0.747 -0.48,0.747C-0.473,0.74 -0.472,0.723 -0.475,0.698C-0.486,0.62 -0.539,0.465 -0.572,0.326L-0.572,0.325C-0.598,0.215 -0.613,0.115 -0.587,0.068C-0.516,-0.056 -0.075,-0.087 0.022,-0.192C0.118,-0.297 0.208,-0.436 0.296,-0.476C0.366,-0.508 0.429,-0.456 0.429,-0.456C0.464,-0.437 0.485,-0.411 0.497,-0.395C0.529,-0.394 0.574,-0.39 0.626,-0.373C0.649,-0.366 0.824,-0.306 0.902,-0.126C0.968,0.027 0.943,0.221 0.874,0.251C0.856,0.259 0.813,0.266 0.802,0.267C0.759,0.271 0.714,0.272 0.714,0.272C0.714,0.272 0.695,0.282 0.666,0.299C0.597,0.339 0.47,0.416 0.393,0.482C0.368,0.502 0.348,0.522 0.337,0.539C0.312,0.576 0.302,0.679 0.296,0.791C0.286,0.962 0.286,1.155 0.258,1.173C0.212,1.203 0.16,1.145 0.065,1.136C0.024,1.132 -0.051,1.148 -0.126,1.164C-0.194,1.178 -0.262,1.193 -0.306,1.193C-0.326,1.193 -0.342,1.19 -0.35,1.182Z" style="fill:url(#_Radial7);fill-rule:nonzero;"/>
                            </g>
                            <g transform="matrix(4.16667,0,0,4.16667,655.214,-2081.47)">
                                <g>
                                    <clipPath id="_clip8">
                                        <path d="M598.538,1525.05C593.891,1529.42 589.668,1541.94 587.5,1549.25C587.5,1549.27 587.489,1549.29 587.479,1549.3C586.523,1552.54 585.967,1554.76 585.967,1554.76C585.967,1554.76 585.644,1554.84 585.033,1555C579.931,1556.3 554.779,1562.27 534.95,1559.55C512.777,1556.5 496.094,1543.14 496.094,1543.14L496.094,1543.19C496.016,1547.77 496.249,1552.08 496.76,1556.13C501.629,1595.26 531.627,1610.38 540.919,1612.81C542.197,1613.14 543.642,1612.94 545.209,1612.36L545.22,1612.36C555.99,1608.28 572.385,1585.69 578.742,1589.76C578.886,1589.84 579.031,1589.94 579.154,1590.06C580.198,1590.99 580.321,1593.56 579.81,1597.28C578.198,1608.94 570.384,1632.07 565.393,1652.94L565.371,1653.03C561.448,1669.43 559.258,1684.43 563.182,1691.35C573.696,1709.91 639.607,1714.54 654.055,1730.2C668.505,1745.86 681.886,1766.64 695.046,1772.68C705.469,1777.46 714.927,1769.59 714.928,1769.59C720.095,1766.78 723.284,1762.95 724.991,1760.52C729.733,1760.43 736.565,1759.82 744.292,1757.3C747.708,1756.19 773.858,1747.2 785.432,1720.39C795.286,1697.57 791.661,1668.58 781.285,1664.02C778.56,1662.83 772.267,1661.87 770.514,1661.7C764.102,1661.08 757.388,1660.99 757.388,1660.99C757.388,1660.99 754.587,1659.44 750.218,1656.9C739.96,1650.93 721.043,1639.47 709.439,1629.66C705.76,1626.53 702.826,1623.58 701.125,1621.03C697.447,1615.47 695.913,1600.19 694.979,1583.46C693.556,1557.94 693.535,1529.1 689.378,1526.42C682.497,1521.98 674.684,1530.62 660.523,1531.98C654.393,1532.57 643.221,1530.16 631.975,1527.76C621.897,1525.6 611.758,1523.44 605.132,1523.44C602.061,1523.44 599.744,1523.9 598.538,1525.05Z"/>
                                    </clipPath>
                                    <g clip-path="url(#_clip8)">
                                        <g transform="matrix(1,0,0,1,710.973,1602.39)">
                                            <path d="M0,27.268C-0.028,27.602 -0.047,27.78 -0.047,27.78C-40.626,18.599 -61.265,26.02 -72.662,35.273C-79.451,40.786 -83.914,47.722 -91.457,47.24C-104.806,46.388 -119.416,22.843 -112.717,9.426C-108.401,0.781 -96.461,-1.188 -89.42,-2.366C-63.021,-6.783 -51.396,9.131 -35.244,1.697C-22.061,-4.369 -17.884,-20.454 -14.469,-18.921C-11.892,-17.763 -15.326,-8.502 -12.218,7.114C-11.588,10.282 -10.781,13.252 -9.086,16.511C-6.315,21.842 -2.553,25.295 0,27.268" style="fill:rgb(103,76,57);fill-rule:nonzero;"/>
                                        </g>
                                        <g transform="matrix(1,0,0,1,578.746,1581.81)">
                                            <path d="M0,7.944C-7.289,3.281 -27.756,33.623 -37.825,30.994C-47.123,28.575 -77.113,13.45 -81.987,-25.679C-78.447,-21.256 -70.295,-11.96 -59.995,-3.933C-44.595,8.081 -24.395,17.273 -7.602,3.186C-7.141,2.801 -6.486,2.735 -5.935,2.481C-5.935,2.481 -5.455,2.574 -4.751,2.796C-3.12,3.292 -0.256,4.436 0.567,6.546C0.671,6.8 0.456,7.281 0,7.944" style="fill:rgb(228,186,155);fill-rule:nonzero;"/>
                                        </g>
                                        <g transform="matrix(1,0,0,1,587.501,1606.76)">
                                            <path d="M0,-57.512C1.359,-60.78 2.149,-62.838 2.245,-63.106C2.063,-61.936 -2.757,-31.189 -7.689,-9.478C-7.182,-13.21 -7.301,-15.777 -8.349,-16.704C-8.474,-16.814 -8.609,-16.923 -8.755,-17.009C-15.112,-21.076 -31.512,1.519 -42.285,5.594C-24.884,-5.234 -9.791,-35.19 -2.464,-51.759C-1.521,-53.908 -0.696,-55.834 -0.021,-57.467C-0.011,-57.478 0,-57.501 0,-57.512" style="fill:rgb(103,76,57);fill-rule:nonzero;"/>
                                        </g>
                                        <g transform="matrix(1,0,0,1,786.109,1660.42)">
                                            <path d="M0,78.087C-45.124,116.602 -73.914,121.341 -92.947,114.655C-111.918,107.993 -110.329,93.796 -136.627,74.363C-178.219,43.629 -215.477,55.208 -226.019,30.682C-229.221,23.231 -231.122,10.479 -220.38,-10.899L-220.359,-10.989C-217.501,-21.744 -214.642,-32.498 -211.783,-43.254C-214.602,-36.879 -220.111,-22.01 -216.862,-3.638C-215.429,4.47 -213.001,18.231 -201.964,26.837C-185.968,39.31 -162.942,32.507 -149.48,28.53C-133.649,23.854 -122.191,16.144 -115.375,10.76C-76.917,33.202 -38.458,55.645 0,78.087" style="fill:rgb(103,76,57);fill-rule:nonzero;"/>
                                        </g>
                                    </g>
                                </g>
                            </g>
                            <g transform="matrix(4.16667,0,0,4.16667,3868.38,4862.98)">
                                <path d="M0,1.522L-44.748,11.292C-42.269,10.636 -23.785,5.268 -20.94,-9.77C-16.572,-7.225 -13.771,-5.68 -13.771,-5.68C-13.771,-5.68 -7.058,-5.591 -0.645,-4.969L0,1.522Z" style="fill:rgb(56,39,27);fill-rule:nonzero;"/>
                            </g>
                            <g transform="matrix(4.16667,0,0,4.16667,655.214,-2081.47)">
                                <g opacity="0.5">
                                    <g transform="matrix(-0.0774313,-0.0269881,-0.0269881,0.0774313,623.888,1651.95)">
                                        <path d="M0.169,-0.381C0.286,0.099 0.313,0.392 0.313,0.392L0.501,-0.11C0.374,-0.155 0.296,-0.337 0.169,-0.381Z" style="fill:url(#_Linear9);fill-rule:nonzero;"/>
                                    </g>
                                </g>
                            </g>
                            <g transform="matrix(4.16667,0,0,4.16667,655.214,-2081.47)">
                                <g opacity="0.5">
                                    <g transform="matrix(0.0468878,-0.106936,-0.106936,-0.0468878,726.239,1678.09)">
                                        <path d="M0.302,0.912L1.614,-0.907C0.894,0.031 0.416,0.653 0.302,0.912Z" style="fill:url(#_Linear10);fill-rule:nonzero;"/>
                                    </g>
                                </g>
                            </g>
                            <g transform="matrix(4.16667,0,0,4.16667,3253.4,4565.57)">
                                <path d="M0,39.721C-8.845,41.114 -17.467,33.083 -19.254,21.777C-21.034,10.472 -15.311,0.177 -6.467,-1.222C-5.697,-1.342 -4.928,-1.393 -4.171,-1.368C3.828,-1.196 11.153,6.402 12.787,16.722C12.863,17.193 12.921,17.657 12.971,18.121C14.097,28.867 8.476,38.379 0,39.721" style="fill:white;fill-rule:nonzero;"/>
                            </g>
                            <g transform="matrix(0,-4.16667,-4.16667,0,3247.97,4583.08)">
                                <path d="M-10.809,-10.81C-16.779,-10.81 -21.619,-5.97 -21.619,-0.001C-21.619,5.969 -16.779,10.809 -10.809,10.809C-4.839,10.809 0,5.969 0,-0.001C0,-5.97 -4.839,-10.81 -10.809,-10.81" style="fill:rgb(14,105,55);fill-rule:nonzero;"/>
                            </g>
                            <g transform="matrix(0,4.16667,4.16667,0,3218.83,4583.08)">
                                <path d="M5.087,-5.087C2.278,-5.087 0,-2.81 0,0C0,2.809 2.278,5.087 5.087,5.087C7.896,5.087 10.174,2.809 10.174,0C10.174,-2.81 7.896,-5.087 5.087,-5.087" style="fill:white;fill-rule:nonzero;"/>
                            </g>
                            <g transform="matrix(0,4.16667,4.16667,0,3261.22,4636.07)">
                                <path d="M2.544,-2.544C1.139,-2.544 0,-1.404 0,-0C0,1.405 1.139,2.544 2.544,2.544C3.948,2.544 5.087,1.405 5.087,-0C5.087,-1.404 3.948,-2.544 2.544,-2.544" style="fill:white;fill-rule:nonzero;"/>
                            </g>
                            <g transform="matrix(4.16667,0,0,4.16667,3139.35,4500.95)">
                                <path d="M0,23.527C0,23.527 18.44,9.538 30.521,8.902C30.521,8.902 26.07,1.272 19.711,0C19.711,0 5.087,5.723 -2.543,20.348" style="fill:rgb(64,36,20);fill-rule:nonzero;"/>
                            </g>
                            <g transform="matrix(4.16667,0,0,4.16667,3512.93,4538.35)">
                                <path d="M0,33.382C-7.433,34.552 -14.679,27.803 -16.18,18.302C-17.677,8.802 -12.867,0.15 -5.434,-1.025C-4.788,-1.127 -4.141,-1.17 -3.505,-1.148C3.217,-1.004 9.373,5.382 10.746,14.054C10.81,14.45 10.858,14.84 10.901,15.23C11.847,24.261 7.123,32.255 0,33.382" style="fill:white;fill-rule:nonzero;"/>
                            </g>
                            <g transform="matrix(0,-4.16667,-4.16667,0,3508.36,4553.07)">
                                <path d="M-9.084,-9.084C-14.101,-9.084 -18.168,-5.017 -18.168,0C-18.168,5.017 -14.101,9.084 -9.084,9.084C-4.067,9.084 0,5.017 0,0C0,-5.017 -4.067,-9.084 -9.084,-9.084" style="fill:rgb(14,105,55);fill-rule:nonzero;"/>
                            </g>
                            <g transform="matrix(0,4.16667,4.16667,0,3483.87,4553.07)">
                                <path d="M4.275,-4.275C1.914,-4.275 0,-2.361 0,0C0,2.361 1.914,4.275 4.275,4.275C6.636,4.275 8.55,2.361 8.55,0C8.55,-2.361 6.636,-4.275 4.275,-4.275" style="fill:white;fill-rule:nonzero;"/>
                            </g>
                            <g transform="matrix(0,4.16667,4.16667,0,3519.49,4597.6)">
                                <path d="M2.138,-2.138C0.958,-2.138 0.001,-1.181 0.001,-0.001C0.001,1.18 0.958,2.138 2.138,2.138C3.318,2.138 4.275,1.18 4.275,-0.001C4.275,-1.181 3.318,-2.138 2.138,-2.138" style="fill:white;fill-rule:nonzero;"/>
                            </g>
                            <g transform="matrix(4.16667,0,0,4.16667,3559.56,4465.17)">
                                <path d="M0,17.565C0,17.565 -16.834,7.821 -26.975,8.55C-26.975,8.55 -24.058,1.723 -18.889,0C-18.889,0 -6.097,3.248 1.79,14.649" style="fill:rgb(64,36,20);fill-rule:nonzero;"/>
                            </g>
                            <g transform="matrix(4.16667,0,0,4.16667,4561.6,4421.47)">
                                <path d="M0,-151.51C-0.003,-151.52 -0.007,-151.529 -0.01,-151.54C-0.034,-151.616 -0.067,-151.672 -0.108,-151.709C-0.114,-151.714 -0.119,-151.723 -0.125,-151.729C-0.172,-151.761 -0.229,-151.77 -0.296,-151.76C-0.313,-151.757 -0.333,-151.748 -0.351,-151.742C-0.407,-151.725 -0.469,-151.693 -0.537,-151.649C-0.561,-151.632 -0.584,-151.62 -0.611,-151.6C-0.699,-151.534 -0.797,-151.446 -0.904,-151.337C-0.938,-151.302 -0.977,-151.258 -1.013,-151.218C-1.099,-151.125 -1.191,-151.019 -1.288,-150.901C-1.332,-150.848 -1.375,-150.796 -1.422,-150.736C-1.556,-150.566 -1.698,-150.376 -1.852,-150.162C-1.897,-150.099 -1.946,-150.026 -1.993,-149.959C-2.119,-149.778 -2.251,-149.583 -2.39,-149.374C-2.45,-149.283 -2.51,-149.194 -2.572,-149.097C-2.758,-148.812 -2.951,-148.508 -3.158,-148.172C-3.204,-148.097 -3.255,-148.012 -3.302,-147.935C-3.48,-147.642 -3.666,-147.332 -3.86,-147.005C-3.932,-146.885 -4.003,-146.764 -4.076,-146.637C-4.321,-146.219 -4.573,-145.782 -4.841,-145.308C-4.871,-145.256 -4.903,-145.198 -4.933,-145.144C-5.183,-144.701 -5.445,-144.228 -5.717,-143.734C-5.795,-143.593 -5.873,-143.451 -5.952,-143.305C-6.26,-142.741 -6.576,-142.158 -6.911,-141.531C-8.75,-138.083 -10.969,-134.412 -13.5,-130.619C-13.633,-130.419 -13.762,-130.221 -13.897,-130.02C-14.124,-129.684 -14.348,-129.349 -14.58,-129.011C-14.752,-128.761 -14.934,-128.506 -15.109,-128.254C-15.184,-128.145 -15.261,-128.037 -15.337,-127.929C-15.392,-127.848 -15.448,-127.769 -15.504,-127.688C-16.75,-125.907 -18.059,-124.109 -19.44,-122.289C-19.94,-121.631 -20.448,-120.97 -20.965,-120.31C-20.995,-120.271 -21.024,-120.232 -21.054,-120.193C-21.418,-119.729 -21.79,-119.263 -22.163,-118.797C-22.391,-118.511 -22.624,-118.224 -22.855,-117.94C-23.356,-117.318 -23.854,-116.699 -24.37,-116.075C-24.632,-115.759 -24.907,-115.441 -25.173,-115.125C-26.421,-113.64 -27.706,-112.152 -29.034,-110.665C-29.453,-110.195 -29.872,-109.726 -30.299,-109.257C-30.567,-108.962 -30.844,-108.668 -31.115,-108.374C-31.636,-107.809 -32.15,-107.244 -32.681,-106.681C-33.424,-105.894 -34.187,-105.111 -34.95,-104.328C-35.17,-104.103 -35.384,-103.876 -35.605,-103.651C-35.698,-103.557 -35.787,-103.461 -35.88,-103.367C-35.988,-103.257 -36.095,-103.148 -36.204,-103.037C-36.609,-102.63 -37.029,-102.226 -37.44,-101.819C-37.641,-101.621 -37.843,-101.421 -38.045,-101.222C-39.151,-100.136 -40.275,-99.06 -41.419,-97.989C-41.694,-97.731 -41.965,-97.471 -42.242,-97.213C-42.254,-97.203 -42.266,-97.191 -42.278,-97.18C-42.624,-96.859 -42.971,-96.542 -43.321,-96.223C-44.298,-95.332 -45.282,-94.445 -46.285,-93.568C-46.393,-93.472 -46.504,-93.381 -46.612,-93.287C-47.259,-92.725 -47.919,-92.17 -48.575,-91.615C-48.818,-91.409 -49.057,-91.201 -49.301,-90.996C-49.477,-90.85 -49.646,-90.699 -49.822,-90.553C-51.5,-89.157 -53.219,-87.794 -54.96,-86.448C-55.149,-86.302 -55.34,-86.158 -55.53,-86.011C-55.942,-85.697 -56.351,-85.379 -56.767,-85.066C-56.92,-84.951 -57.069,-84.832 -57.223,-84.717C-57.748,-84.324 -58.283,-83.941 -58.814,-83.555C-59.529,-83.033 -60.243,-82.511 -60.967,-81.999C-61.386,-81.704 -61.808,-81.413 -62.23,-81.121C-62.698,-80.796 -63.173,-80.479 -63.645,-80.159C-64.037,-79.895 -64.424,-79.625 -64.819,-79.362C-64.925,-79.292 -65.03,-79.217 -65.137,-79.146C-65.365,-78.995 -65.592,-78.844 -65.821,-78.695C-66.459,-78.278 -67.109,-77.875 -67.753,-77.466C-68.746,-76.837 -69.743,-76.216 -70.75,-75.609C-71.698,-75.038 -72.647,-74.467 -73.607,-73.916C-74.156,-73.6 -74.714,-73.302 -75.267,-72.995C-75.877,-72.655 -76.487,-72.317 -77.102,-71.986C-77.598,-71.721 -78.092,-71.451 -78.591,-71.19C-78.596,-71.187 -78.602,-71.184 -78.608,-71.181C-79.091,-70.929 -79.582,-70.69 -80.068,-70.444C-81.14,-69.9 -82.215,-69.363 -83.301,-68.847C-83.693,-68.66 -84.09,-68.484 -84.484,-68.302C-84.974,-68.076 -85.462,-67.846 -85.955,-67.625C-86.313,-67.464 -86.667,-67.292 -87.027,-67.136C-88.042,-66.691 -89.07,-66.278 -90.096,-65.861C-90.346,-65.759 -90.594,-65.65 -90.845,-65.55C-91.079,-65.456 -91.311,-65.355 -91.546,-65.262C-91.9,-65.124 -92.261,-65.003 -92.617,-64.867C-93.809,-64.412 -95.004,-63.963 -96.209,-63.549C-96.368,-63.493 -96.529,-63.447 -96.689,-63.394C-97.054,-63.27 -97.423,-63.158 -97.79,-63.037C-98.347,-62.854 -98.903,-62.672 -99.463,-62.497C-99.527,-62.476 -99.591,-62.455 -99.655,-62.434C-100.755,-62.094 -101.862,-61.78 -102.971,-61.472C-103.683,-61.277 -104.39,-61.065 -105.105,-60.885C-105.406,-60.807 -105.708,-60.74 -106.01,-60.667C-106.344,-60.585 -106.681,-60.516 -107.016,-60.437C-107.97,-60.213 -108.922,-59.982 -109.881,-59.786C-110.961,-59.563 -112.049,-59.381 -113.137,-59.195C-113.324,-59.162 -113.509,-59.126 -113.696,-59.095C-115.098,-58.862 -116.506,-58.667 -117.92,-58.494C-118.046,-58.479 -118.171,-58.461 -118.298,-58.446C-118.417,-58.431 -118.535,-58.413 -118.655,-58.4C-119.021,-58.358 -119.384,-58.297 -119.751,-58.26C-120.667,-58.166 -121.579,-58.096 -122.492,-58.016C-122.635,-58.003 -122.779,-57.99 -122.923,-57.978C-123.745,-57.909 -124.567,-57.84 -125.386,-57.784C-126.048,-57.736 -126.708,-57.697 -127.368,-57.657C-127.976,-57.62 -128.586,-57.576 -129.192,-57.545C-129.879,-57.509 -130.562,-57.489 -131.247,-57.46C-131.785,-57.438 -132.323,-57.412 -132.859,-57.395C-133.885,-57.36 -134.907,-57.336 -135.929,-57.315C-136.815,-57.298 -137.701,-57.277 -138.584,-57.268C-139.48,-57.259 -140.373,-57.259 -141.266,-57.259C-141.357,-57.259 -141.448,-57.257 -141.538,-57.257L-141.636,-57.257C-142.01,-57.257 -142.385,-57.253 -142.758,-57.254C-148.447,-57.281 -154.069,-57.469 -159.628,-57.7C-160.102,-57.72 -160.576,-57.738 -161.049,-57.758C-162.291,-57.811 -163.53,-57.866 -164.766,-57.921C-168.936,-58.106 -173.067,-58.295 -177.16,-58.44C-178.524,-58.488 -179.884,-58.53 -181.24,-58.567C-186.434,-58.706 -191.563,-58.737 -196.629,-58.571C-197.806,-58.533 -198.979,-58.483 -200.149,-58.422C-200.499,-58.403 -200.847,-58.38 -201.195,-58.359C-201.976,-58.312 -202.758,-58.27 -203.536,-58.212C-218.073,-57.12 -232.055,-53.873 -245.448,-45.978C-245.482,-45.957 -245.517,-45.939 -245.55,-45.92C-245.644,-45.863 -245.74,-45.813 -245.835,-45.756C-246.098,-45.599 -246.363,-45.459 -246.626,-45.298C-247.338,-44.862 -248.045,-44.385 -248.754,-43.923C-248.763,-43.917 -248.772,-43.911 -248.781,-43.905C-249.348,-43.533 -249.913,-43.143 -250.48,-42.758C-250.477,-42.753 -250.473,-42.749 -250.469,-42.743C-251.023,-42.363 -251.579,-41.999 -252.13,-41.6C-252.853,-41.078 -253.577,-40.576 -254.295,-40.022C-254.591,-39.796 -254.869,-39.56 -255.133,-39.318C-255.224,-39.233 -255.305,-39.145 -255.392,-39.06C-255.557,-38.898 -255.724,-38.737 -255.876,-38.57C-255.978,-38.458 -256.068,-38.341 -256.163,-38.227C-256.287,-38.08 -256.412,-37.934 -256.526,-37.782C-256.628,-37.649 -256.719,-37.511 -256.813,-37.373C-256.906,-37.238 -257.002,-37.102 -257.089,-36.963C-257.186,-36.807 -257.275,-36.647 -257.364,-36.487C-257.433,-36.365 -257.503,-36.243 -257.567,-36.118C-257.659,-35.937 -257.744,-35.752 -257.826,-35.567C-257.874,-35.463 -257.921,-35.357 -257.965,-35.249C-258.052,-35.041 -258.131,-34.83 -258.205,-34.617C-258.234,-34.535 -258.262,-34.453 -258.289,-34.369C-258.369,-34.128 -258.441,-33.883 -258.506,-33.635C-258.519,-33.586 -258.531,-33.537 -258.544,-33.489C-258.615,-33.204 -258.68,-32.917 -258.733,-32.626L-258.734,-32.621C-258.83,-32.11 -258.89,-31.586 -258.936,-31.061C-258.944,-30.967 -258.95,-30.873 -258.956,-30.781C-259.364,-24.943 -256.917,-18.402 -254.861,-13.968C-254.86,-13.966 -254.86,-13.965 -254.859,-13.963C-254.658,-13.529 -254.463,-13.124 -254.273,-12.733C-254.264,-12.713 -254.256,-12.697 -254.246,-12.679C-254.074,-12.326 -253.909,-11.993 -253.751,-11.68C-253.73,-11.638 -253.71,-11.598 -253.689,-11.556C-253.525,-11.234 -253.368,-10.925 -253.226,-10.652C-253.041,-10.294 -252.812,-9.903 -252.559,-9.498C-252.526,-9.446 -252.489,-9.39 -252.456,-9.338C-252.203,-8.941 -251.928,-8.531 -251.625,-8.109C-251.624,-8.109 -251.623,-8.108 -251.623,-8.106C-249.395,-5.005 -245.847,-1.418 -242.384,-0.186L-242.381,-0.186C-242.143,-0.101 -241.907,-0.028 -241.671,0.033C-241.607,0.05 -241.543,0.065 -241.479,0.079C-241.286,0.124 -241.095,0.163 -240.904,0.19C-240.793,0.208 -240.683,0.215 -240.573,0.226C-240.419,0.241 -240.266,0.256 -240.113,0.257C-239.957,0.26 -239.803,0.247 -239.649,0.236C-239.538,0.227 -239.426,0.227 -239.316,0.212C-239.049,0.175 -238.784,0.121 -238.525,0.039C-238.523,0.039 -238.521,0.039 -238.519,0.038C-237.992,-0.128 -237.476,-0.356 -236.99,-0.724C-236.853,-0.832 -236.716,-0.938 -236.594,-1.045C-234.105,-2.99 -231.724,-4.793 -229.414,-6.5C-226.874,-8.376 -224.434,-10.112 -222.083,-11.72C-221.17,-12.345 -220.275,-12.943 -219.387,-13.529C-219.266,-13.61 -219.144,-13.692 -219.024,-13.771C-218.133,-14.356 -217.255,-14.921 -216.388,-15.47C-216.208,-15.583 -216.027,-15.698 -215.848,-15.81C-215.078,-16.293 -214.314,-16.765 -213.561,-17.219C-213.143,-17.472 -212.729,-17.718 -212.316,-17.962C-211.824,-18.252 -211.33,-18.546 -210.845,-18.823C-210.268,-19.156 -209.699,-19.47 -209.13,-19.785C-209.057,-19.827 -208.982,-19.87 -208.908,-19.91C-208.875,-19.928 -208.84,-19.949 -208.806,-19.967C-208.748,-20 -208.688,-20.034 -208.63,-20.067C-207.781,-20.532 -206.946,-20.972 -206.117,-21.4C-203.948,-22.523 -201.836,-23.532 -199.773,-24.425C-199.24,-24.656 -198.712,-24.874 -198.185,-25.092C-198.033,-25.153 -197.882,-25.214 -197.73,-25.277C-197.565,-25.343 -197.399,-25.411 -197.235,-25.477C-197.071,-25.542 -196.904,-25.614 -196.74,-25.678C-196.603,-25.732 -196.464,-25.79 -196.328,-25.842C-194.923,-26.384 -193.539,-26.862 -192.161,-27.311C-191.947,-27.381 -191.732,-27.453 -191.519,-27.522C-190.576,-27.82 -189.637,-28.099 -188.702,-28.358C-188.634,-28.376 -188.565,-28.399 -188.497,-28.417C-187.488,-28.692 -186.482,-28.952 -185.477,-29.188C-185.117,-29.271 -184.757,-29.343 -184.398,-29.422C-184.015,-29.507 -183.632,-29.59 -183.249,-29.67C-182.485,-29.825 -181.719,-29.969 -180.952,-30.105C-180.899,-30.114 -180.845,-30.124 -180.792,-30.133C-179.45,-30.369 -178.101,-30.578 -176.74,-30.757C-176.335,-30.811 -175.927,-30.857 -175.521,-30.906C-175.152,-30.949 -174.786,-31 -174.416,-31.04C-174.361,-31.046 -174.307,-31.051 -174.252,-31.057C-174.222,-31.061 -174.191,-31.063 -174.16,-31.066C-173.849,-31.1 -173.532,-31.125 -173.219,-31.157C-172.23,-31.255 -171.231,-31.342 -170.223,-31.419C-169.741,-31.455 -169.262,-31.495 -168.774,-31.526C-168.634,-31.535 -168.491,-31.544 -168.351,-31.553C-167.488,-31.609 -166.619,-31.658 -165.738,-31.701C-164.816,-31.746 -163.881,-31.783 -162.937,-31.817C-162.089,-31.847 -161.226,-31.873 -160.358,-31.896C-160.336,-31.896 -160.314,-31.898 -160.292,-31.898C-160.021,-31.905 -159.756,-31.914 -159.482,-31.922C-159.274,-31.926 -159.057,-31.929 -158.847,-31.934C-157.875,-31.956 -156.891,-31.975 -155.89,-31.992C-154.613,-32.013 -153.305,-32.031 -151.975,-32.046C-150.965,-32.057 -149.941,-32.069 -148.897,-32.08C-148.45,-32.084 -147.994,-32.089 -147.541,-32.095C-147.46,-32.095 -147.38,-32.096 -147.299,-32.096C-146.461,-32.105 -145.611,-32.116 -144.75,-32.126C-143.913,-32.135 -143.078,-32.144 -142.218,-32.156C-141.429,-32.166 -140.616,-32.18 -139.807,-32.193C-139.441,-32.199 -139.086,-32.204 -138.716,-32.21C-137.592,-32.229 -136.439,-32.253 -135.273,-32.28C-135.014,-32.286 -134.767,-32.289 -134.506,-32.295C-133.414,-32.32 -132.328,-32.36 -131.244,-32.402C-130.726,-32.423 -130.208,-32.444 -129.692,-32.468C-129.669,-32.469 -129.646,-32.471 -129.623,-32.472C-128.555,-32.523 -127.49,-32.585 -126.429,-32.653C-126.425,-32.659 -126.423,-32.665 -126.419,-32.669C-126.244,-32.681 -126.068,-32.69 -125.893,-32.702C-125.897,-32.696 -125.9,-32.688 -125.904,-32.682C-125.806,-32.69 -125.707,-32.697 -125.609,-32.705C-125.607,-32.709 -125.604,-32.715 -125.602,-32.72C-124.492,-32.796 -123.387,-32.884 -122.285,-32.979C-122.286,-32.976 -122.286,-32.975 -122.287,-32.973C-121.846,-33.012 -121.409,-33.06 -120.969,-33.102C-119.107,-33.278 -117.257,-33.486 -115.42,-33.725C-115.422,-33.721 -115.424,-33.718 -115.426,-33.715C-115.181,-33.746 -114.938,-33.785 -114.694,-33.817C-113.674,-33.955 -112.656,-34.099 -111.643,-34.258C-111.631,-34.259 -111.619,-34.262 -111.607,-34.264C-102.989,-35.609 -94.642,-37.685 -86.583,-40.746C-79.067,-43.601 -71.796,-47.303 -64.775,-52.022C-50.133,-61.865 -36.577,-76.157 -24.146,-96.5C-24.106,-96.564 -24.067,-96.628 -24.027,-96.694C-23.581,-97.426 -23.131,-98.139 -22.687,-98.888C-22.622,-98.997 -22.557,-99.11 -22.492,-99.221C-22.464,-99.267 -22.437,-99.315 -22.409,-99.362C-22.13,-99.837 -21.851,-100.314 -21.574,-100.796C-21.575,-100.799 -21.576,-100.802 -21.576,-100.803C-21.379,-101.146 -21.182,-101.482 -20.985,-101.828L-20.985,-101.826C-20.979,-101.838 -20.972,-101.85 -20.965,-101.862C-20.943,-101.901 -20.922,-101.937 -20.9,-101.976C-20.857,-102.052 -20.816,-102.132 -20.773,-102.208C-20.327,-102.996 -19.882,-103.791 -19.441,-104.596C-19.444,-104.607 -19.446,-104.617 -19.448,-104.628C-19.187,-105.105 -18.924,-105.578 -18.664,-106.061C-18.663,-106.053 -18.661,-106.047 -18.66,-106.04C-18.525,-106.291 -18.392,-106.546 -18.259,-106.799C-18.162,-106.981 -18.063,-107.153 -17.966,-107.335C-17.766,-107.712 -17.573,-108.097 -17.375,-108.477C-17.205,-108.798 -17.033,-109.119 -16.866,-109.442C-16.867,-109.445 -16.868,-109.448 -16.87,-109.451C-16.815,-109.557 -16.761,-109.661 -16.706,-109.767C-16.705,-109.764 -16.704,-109.761 -16.703,-109.758C-16.654,-109.854 -16.605,-109.951 -16.555,-110.046C-16.556,-110.048 -16.557,-110.051 -16.558,-110.054C-16.325,-110.506 -16.087,-110.953 -15.856,-111.408C-15.531,-112.048 -15.216,-112.692 -14.896,-113.335L-14.895,-113.334C-14.863,-113.399 -14.831,-113.465 -14.799,-113.531C-10.49,-122.213 -6.666,-131.019 -3.983,-137.992C-1.237,-145.126 0.319,-150.33 0,-151.51" style="fill:rgb(229,229,228);fill-rule:nonzero;"/>
                            </g>
                            <g transform="matrix(4.16667,0,0,4.16667,2132.41,4438.4)">
                                <path d="M0,-151.51C0.003,-151.52 0.007,-151.529 0.01,-151.54C0.034,-151.616 0.067,-151.672 0.108,-151.709C0.114,-151.714 0.119,-151.723 0.125,-151.729C0.172,-151.761 0.229,-151.77 0.296,-151.76C0.313,-151.757 0.333,-151.748 0.351,-151.742C0.407,-151.725 0.469,-151.693 0.537,-151.649C0.561,-151.632 0.584,-151.62 0.611,-151.6C0.699,-151.534 0.796,-151.446 0.904,-151.337C0.938,-151.302 0.977,-151.258 1.013,-151.218C1.099,-151.125 1.191,-151.019 1.288,-150.901C1.332,-150.848 1.375,-150.796 1.422,-150.736C1.556,-150.566 1.698,-150.376 1.852,-150.162C1.897,-150.099 1.946,-150.026 1.993,-149.959C2.119,-149.778 2.251,-149.583 2.39,-149.374C2.45,-149.283 2.51,-149.194 2.572,-149.097C2.758,-148.812 2.951,-148.507 3.158,-148.172C3.204,-148.097 3.255,-148.012 3.302,-147.935C3.48,-147.642 3.666,-147.332 3.86,-147.005C3.932,-146.885 4.003,-146.764 4.076,-146.637C4.321,-146.219 4.573,-145.782 4.841,-145.308C4.871,-145.256 4.903,-145.198 4.933,-145.144C5.183,-144.701 5.445,-144.228 5.717,-143.734C5.794,-143.593 5.873,-143.451 5.952,-143.305C6.26,-142.741 6.576,-142.158 6.911,-141.531C8.75,-138.083 10.969,-134.412 13.499,-130.619C13.633,-130.419 13.762,-130.221 13.897,-130.02C14.124,-129.684 14.348,-129.349 14.58,-129.011C14.752,-128.761 14.934,-128.506 15.109,-128.254C15.184,-128.145 15.261,-128.037 15.337,-127.929C15.392,-127.848 15.448,-127.769 15.504,-127.688C16.75,-125.907 18.059,-124.109 19.44,-122.289C19.94,-121.631 20.448,-120.97 20.965,-120.31C20.995,-120.271 21.024,-120.232 21.054,-120.193C21.418,-119.729 21.79,-119.263 22.163,-118.797C22.391,-118.511 22.624,-118.224 22.854,-117.94C23.356,-117.318 23.854,-116.699 24.37,-116.075C24.632,-115.759 24.907,-115.441 25.173,-115.125C26.421,-113.639 27.706,-112.152 29.033,-110.665C29.453,-110.195 29.872,-109.726 30.299,-109.257C30.567,-108.962 30.844,-108.668 31.115,-108.374C31.636,-107.809 32.15,-107.244 32.681,-106.681C33.424,-105.894 34.187,-105.111 34.95,-104.328C35.169,-104.102 35.384,-103.876 35.605,-103.651C35.698,-103.557 35.787,-103.461 35.88,-103.367C35.988,-103.257 36.095,-103.148 36.204,-103.037C36.609,-102.63 37.029,-102.226 37.44,-101.819C37.641,-101.62 37.843,-101.421 38.045,-101.222C39.151,-100.136 40.275,-99.06 41.419,-97.989C41.694,-97.731 41.965,-97.471 42.242,-97.213C42.254,-97.203 42.266,-97.191 42.278,-97.18C42.624,-96.859 42.971,-96.542 43.321,-96.223C44.298,-95.332 45.282,-94.445 46.285,-93.568C46.393,-93.472 46.504,-93.381 46.612,-93.287C47.259,-92.725 47.919,-92.17 48.575,-91.615C48.818,-91.409 49.057,-91.201 49.301,-90.996C49.477,-90.85 49.646,-90.699 49.822,-90.553C51.5,-89.157 53.219,-87.794 54.96,-86.448C55.149,-86.302 55.34,-86.158 55.53,-86.011C55.942,-85.697 56.351,-85.379 56.767,-85.066C56.92,-84.951 57.069,-84.832 57.222,-84.717C57.748,-84.324 58.283,-83.941 58.814,-83.555C59.529,-83.033 60.243,-82.511 60.967,-81.999C61.386,-81.704 61.808,-81.413 62.23,-81.121C62.698,-80.795 63.173,-80.479 63.645,-80.159C64.037,-79.895 64.424,-79.625 64.819,-79.362C64.925,-79.292 65.03,-79.217 65.137,-79.146C65.365,-78.995 65.592,-78.844 65.821,-78.695C66.459,-78.278 67.108,-77.875 67.753,-77.466C68.746,-76.837 69.743,-76.216 70.75,-75.609C71.698,-75.038 72.647,-74.467 73.607,-73.916C74.156,-73.6 74.714,-73.302 75.267,-72.995C75.877,-72.655 76.487,-72.317 77.102,-71.986C77.598,-71.721 78.092,-71.451 78.591,-71.19C78.596,-71.187 78.602,-71.184 78.608,-71.181C79.091,-70.929 79.582,-70.69 80.068,-70.444C81.14,-69.9 82.215,-69.363 83.301,-68.847C83.693,-68.66 84.09,-68.484 84.484,-68.302C84.974,-68.075 85.462,-67.846 85.955,-67.625C86.313,-67.464 86.667,-67.292 87.027,-67.136C88.042,-66.691 89.07,-66.278 90.096,-65.861C90.346,-65.759 90.594,-65.65 90.845,-65.55C91.079,-65.456 91.311,-65.355 91.546,-65.262C91.9,-65.124 92.261,-65.003 92.617,-64.867C93.809,-64.412 95.004,-63.963 96.209,-63.549C96.368,-63.493 96.529,-63.447 96.689,-63.394C97.054,-63.27 97.423,-63.158 97.79,-63.037C98.347,-62.854 98.903,-62.672 99.463,-62.497C99.527,-62.476 99.591,-62.455 99.655,-62.434C100.755,-62.094 101.862,-61.78 102.971,-61.472C103.682,-61.277 104.39,-61.065 105.105,-60.885C105.406,-60.807 105.708,-60.74 106.01,-60.667C106.344,-60.585 106.681,-60.516 107.016,-60.437C107.97,-60.213 108.922,-59.982 109.881,-59.785C110.961,-59.563 112.049,-59.381 113.137,-59.195C113.324,-59.162 113.509,-59.126 113.696,-59.095C115.098,-58.862 116.506,-58.667 117.92,-58.494C118.046,-58.479 118.171,-58.461 118.297,-58.446C118.417,-58.431 118.535,-58.413 118.655,-58.4C119.021,-58.358 119.384,-58.297 119.751,-58.26C120.667,-58.166 121.579,-58.095 122.492,-58.016C122.635,-58.003 122.779,-57.99 122.923,-57.978C123.745,-57.909 124.566,-57.84 125.386,-57.784C126.048,-57.736 126.708,-57.697 127.368,-57.657C127.976,-57.62 128.585,-57.576 129.192,-57.545C129.879,-57.509 130.562,-57.488 131.247,-57.46C131.784,-57.438 132.323,-57.412 132.859,-57.395C133.885,-57.36 134.907,-57.336 135.929,-57.315C136.815,-57.297 137.701,-57.277 138.584,-57.268C139.48,-57.259 140.373,-57.259 141.266,-57.259C141.357,-57.259 141.448,-57.257 141.538,-57.257L141.636,-57.257C142.01,-57.257 142.385,-57.253 142.758,-57.254C148.447,-57.281 154.069,-57.469 159.628,-57.7C160.102,-57.72 160.576,-57.738 161.049,-57.758C162.291,-57.811 163.53,-57.866 164.766,-57.921C168.936,-58.106 173.067,-58.295 177.16,-58.44C178.524,-58.488 179.884,-58.53 181.24,-58.567C186.433,-58.706 191.563,-58.737 196.629,-58.571C197.806,-58.533 198.979,-58.483 200.149,-58.422C200.498,-58.403 200.847,-58.38 201.195,-58.359C201.976,-58.312 202.758,-58.27 203.536,-58.212C218.073,-57.12 232.055,-53.873 245.448,-45.978C245.482,-45.957 245.517,-45.939 245.55,-45.92L245.549,-45.92C245.644,-45.863 245.74,-45.813 245.835,-45.756C246.098,-45.599 246.363,-45.459 246.626,-45.298C247.338,-44.862 248.045,-44.385 248.754,-43.923C248.763,-43.917 248.772,-43.911 248.781,-43.905C249.348,-43.533 249.913,-43.143 250.48,-42.758C250.477,-42.753 250.473,-42.749 250.469,-42.743C251.023,-42.363 251.579,-41.999 252.13,-41.6C252.853,-41.078 253.577,-40.576 254.295,-40.022C254.591,-39.796 254.869,-39.56 255.133,-39.318C255.224,-39.233 255.305,-39.145 255.392,-39.06C255.557,-38.898 255.724,-38.737 255.876,-38.57C255.978,-38.458 256.068,-38.341 256.163,-38.227C256.287,-38.08 256.412,-37.934 256.526,-37.782C256.627,-37.649 256.719,-37.511 256.813,-37.373C256.906,-37.238 257.002,-37.102 257.089,-36.963C257.186,-36.807 257.275,-36.647 257.364,-36.487C257.433,-36.365 257.503,-36.243 257.567,-36.117C257.659,-35.937 257.744,-35.752 257.826,-35.567C257.873,-35.463 257.921,-35.357 257.965,-35.249C258.052,-35.041 258.131,-34.83 258.205,-34.617C258.234,-34.535 258.262,-34.453 258.289,-34.369C258.368,-34.128 258.441,-33.883 258.506,-33.635C258.519,-33.586 258.531,-33.537 258.544,-33.489C258.615,-33.204 258.679,-32.917 258.733,-32.626C258.734,-32.624 258.734,-32.623 258.734,-32.621C258.83,-32.11 258.89,-31.586 258.936,-31.061C258.943,-30.967 258.95,-30.873 258.956,-30.781C259.364,-24.943 256.916,-18.402 254.861,-13.968C254.86,-13.966 254.86,-13.965 254.859,-13.963C254.658,-13.529 254.463,-13.124 254.273,-12.733C254.264,-12.713 254.256,-12.697 254.246,-12.679C254.074,-12.326 253.909,-11.993 253.751,-11.68C253.73,-11.638 253.71,-11.598 253.689,-11.556C253.525,-11.234 253.368,-10.925 253.226,-10.652C253.04,-10.294 252.812,-9.903 252.559,-9.498C252.526,-9.446 252.489,-9.39 252.456,-9.338C252.203,-8.941 251.928,-8.531 251.625,-8.109C251.624,-8.109 251.623,-8.108 251.623,-8.106C249.395,-5.005 245.846,-1.418 242.384,-0.186L242.381,-0.186C242.143,-0.101 241.907,-0.028 241.671,0.033C241.607,0.05 241.543,0.065 241.479,0.079C241.286,0.124 241.095,0.163 240.904,0.19C240.793,0.208 240.683,0.215 240.573,0.226C240.419,0.241 240.266,0.256 240.113,0.257C239.957,0.26 239.803,0.247 239.649,0.236C239.538,0.227 239.426,0.227 239.316,0.212C239.049,0.175 238.784,0.121 238.525,0.039C238.523,0.039 238.521,0.039 238.518,0.038C237.992,-0.128 237.476,-0.356 236.99,-0.724C236.853,-0.832 236.716,-0.938 236.594,-1.045C234.105,-2.99 231.724,-4.793 229.414,-6.5C226.874,-8.376 224.434,-10.112 222.083,-11.72C221.17,-12.345 220.275,-12.943 219.387,-13.529C219.266,-13.61 219.144,-13.692 219.024,-13.771C218.133,-14.356 217.255,-14.921 216.388,-15.47C216.208,-15.583 216.027,-15.698 215.848,-15.81C215.078,-16.293 214.314,-16.765 213.561,-17.219C213.143,-17.472 212.729,-17.718 212.316,-17.962C211.824,-18.252 211.33,-18.546 210.845,-18.823C210.268,-19.156 209.699,-19.47 209.13,-19.785C209.057,-19.827 208.982,-19.87 208.908,-19.91C208.875,-19.928 208.84,-19.949 208.806,-19.967C208.748,-20 208.688,-20.034 208.63,-20.067C207.781,-20.532 206.946,-20.972 206.117,-21.4C203.948,-22.523 201.836,-23.532 199.773,-24.425C199.24,-24.656 198.712,-24.874 198.185,-25.092C198.033,-25.153 197.882,-25.214 197.73,-25.277C197.565,-25.343 197.399,-25.411 197.235,-25.477C197.07,-25.542 196.904,-25.614 196.74,-25.678C196.603,-25.732 196.464,-25.79 196.328,-25.842C194.923,-26.384 193.539,-26.862 192.161,-27.311C191.947,-27.381 191.732,-27.453 191.519,-27.522C190.576,-27.82 189.637,-28.099 188.702,-28.358C188.634,-28.376 188.565,-28.399 188.497,-28.417C187.488,-28.692 186.482,-28.952 185.477,-29.188C185.117,-29.271 184.757,-29.343 184.398,-29.422C184.015,-29.507 183.632,-29.59 183.249,-29.67C182.485,-29.825 181.719,-29.969 180.952,-30.105C180.899,-30.114 180.845,-30.124 180.792,-30.133C179.45,-30.369 178.101,-30.578 176.74,-30.757C176.335,-30.811 175.927,-30.857 175.521,-30.906C175.152,-30.949 174.786,-31 174.416,-31.04C174.361,-31.046 174.307,-31.051 174.252,-31.057C174.222,-31.061 174.191,-31.063 174.16,-31.066C173.849,-31.1 173.532,-31.125 173.219,-31.157C172.23,-31.255 171.231,-31.342 170.223,-31.419C169.741,-31.455 169.262,-31.495 168.774,-31.526C168.634,-31.535 168.491,-31.544 168.351,-31.553C167.488,-31.609 166.619,-31.658 165.738,-31.701C164.816,-31.746 163.881,-31.783 162.937,-31.817C162.089,-31.847 161.226,-31.873 160.358,-31.896C160.336,-31.896 160.314,-31.898 160.292,-31.898C160.021,-31.905 159.756,-31.914 159.482,-31.922C159.274,-31.926 159.057,-31.929 158.847,-31.934C157.875,-31.956 156.891,-31.975 155.89,-31.992C154.613,-32.013 153.305,-32.031 151.975,-32.046C150.965,-32.057 149.941,-32.069 148.897,-32.08C148.45,-32.084 147.994,-32.089 147.54,-32.095C147.46,-32.095 147.38,-32.096 147.298,-32.096C146.461,-32.105 145.611,-32.116 144.75,-32.126C143.913,-32.135 143.078,-32.144 142.218,-32.156C141.429,-32.166 140.616,-32.18 139.807,-32.193C139.441,-32.199 139.086,-32.204 138.716,-32.21C137.592,-32.229 136.439,-32.253 135.273,-32.28C135.014,-32.286 134.767,-32.289 134.506,-32.295C133.414,-32.32 132.328,-32.36 131.244,-32.402C130.726,-32.423 130.208,-32.444 129.692,-32.468C129.669,-32.469 129.646,-32.471 129.623,-32.472C128.555,-32.523 127.49,-32.585 126.429,-32.653C126.425,-32.659 126.423,-32.665 126.419,-32.669C126.244,-32.681 126.068,-32.69 125.892,-32.702C125.897,-32.696 125.9,-32.688 125.904,-32.682C125.806,-32.69 125.707,-32.697 125.609,-32.705C125.606,-32.709 125.604,-32.715 125.602,-32.72C124.492,-32.796 123.387,-32.884 122.285,-32.979C122.286,-32.976 122.286,-32.975 122.287,-32.973C121.846,-33.012 121.408,-33.06 120.969,-33.102C119.107,-33.278 117.257,-33.486 115.42,-33.725C115.422,-33.721 115.424,-33.718 115.426,-33.715C115.181,-33.746 114.938,-33.785 114.694,-33.817C113.673,-33.955 112.656,-34.099 111.643,-34.258C111.631,-34.259 111.619,-34.262 111.607,-34.263C102.989,-35.609 94.642,-37.685 86.583,-40.746C79.066,-43.601 71.796,-47.303 64.775,-52.022C50.133,-61.865 36.577,-76.157 24.146,-96.5C24.106,-96.564 24.067,-96.628 24.027,-96.694C23.581,-97.426 23.131,-98.139 22.687,-98.888C22.622,-98.997 22.557,-99.11 22.492,-99.221C22.464,-99.267 22.436,-99.315 22.409,-99.362C22.13,-99.837 21.851,-100.314 21.574,-100.796C21.575,-100.799 21.576,-100.802 21.576,-100.803C21.379,-101.146 21.182,-101.482 20.985,-101.828L20.985,-101.826C20.978,-101.838 20.972,-101.85 20.965,-101.862C20.943,-101.901 20.921,-101.937 20.9,-101.975C20.857,-102.052 20.816,-102.132 20.773,-102.208C20.327,-102.996 19.882,-103.791 19.441,-104.596C19.444,-104.607 19.446,-104.617 19.448,-104.627C19.187,-105.105 18.923,-105.578 18.664,-106.061C18.662,-106.053 18.661,-106.047 18.66,-106.04C18.525,-106.291 18.392,-106.546 18.259,-106.799C18.162,-106.981 18.062,-107.153 17.966,-107.335C17.766,-107.712 17.573,-108.097 17.375,-108.477C17.204,-108.798 17.033,-109.119 16.866,-109.442C16.867,-109.445 16.868,-109.448 16.869,-109.451C16.815,-109.557 16.761,-109.661 16.706,-109.767C16.705,-109.764 16.704,-109.761 16.703,-109.758C16.654,-109.854 16.605,-109.951 16.555,-110.046C16.556,-110.048 16.557,-110.051 16.558,-110.054C16.325,-110.506 16.087,-110.953 15.856,-111.408C15.531,-112.048 15.216,-112.692 14.896,-113.335L14.895,-113.334C14.863,-113.399 14.831,-113.465 14.799,-113.531C10.49,-122.213 6.666,-131.019 3.983,-137.992C1.237,-145.126 -0.319,-150.33 0,-151.51" style="fill:rgb(229,229,228);fill-rule:nonzero;"/>
                            </g>
                            <g transform="matrix(-285.949,1293.89,1293.89,285.949,3766.27,4584.98)">
                                <path d="M0.187,0.029C0.227,-0.022 0.23,-0.077 0.231,-0.122C0.232,-0.163 0.231,-0.196 0.256,-0.211C0.303,-0.239 0.417,-0.177 0.459,-0.082C0.497,0.003 0.472,0.1 0.418,0.161C0.406,0.174 0.371,0.21 0.314,0.222C0.212,0.243 0.098,0.17 0.099,0.116C0.1,0.113 0.1,0.111 0.1,0.109C0.106,0.082 0.148,0.079 0.187,0.029Z" style="fill:url(#_Linear11);fill-rule:nonzero;"/>
                            </g>
                            <g transform="matrix(1.89537,3.71062,3.71062,-1.89537,3577.21,4979.94)">
                                <path d="M7.642,-4.678C17.628,-4.677 25.724,-0.835 25.724,3.903C25.724,8.643 17.628,12.485 7.642,12.485C-2.345,12.486 -10.44,8.642 -10.44,3.904C-10.44,-0.836 -2.344,-4.678 7.642,-4.678" style="fill:rgb(64,36,20);fill-rule:nonzero;"/>
                            </g>
                            <g transform="matrix(-0.11829,4.16499,4.16499,0.11829,3906.18,4889.35)">
                                <path d="M7.042,-7.245C15.24,-7.245 21.886,-4.09 21.886,-0.2C21.887,3.691 15.24,6.845 7.042,6.845C-1.156,6.845 -7.802,3.69 -7.803,-0.2C-7.803,-4.091 -1.156,-7.245 7.042,-7.245" style="fill:rgb(64,36,20);fill-rule:nonzero;"/>
                            </g>
                            <g transform="matrix(4.16667,0,0,4.16667,3677.2,5056.51)">
                                <path d="M0,47.355C-8.788,46.365 -27.883,42.979 -46.335,28.696C-59.309,18.652 -66.765,7.246 -70.714,0" style="fill:none;fill-rule:nonzero;stroke:rgb(56,39,27);stroke-width:2.91px;"/>
                            </g>
                            <g transform="matrix(-3.37738,2.44016,2.44016,3.37738,3369.95,5094.24)">
                                <path d="M-15.873,-4.018C-12.242,-8.34 -1.524,-8.686 2.106,-4.018" style="fill:none;fill-rule:nonzero;stroke:rgb(56,39,27);stroke-width:2.91px;"/>
                            </g>
                            <g transform="matrix(4.16667,0,0,4.16667,2776.83,6586.53)">
                                <path d="M0,14.817C16.085,7.655 -13.469,-1.463 -22.332,-8.053C-17.162,0.62 -18.074,22.87 0,14.817" style="fill:rgb(51,36,26);fill-rule:nonzero;"/>
                            </g>
                        </g>
                    </g>
                </g>
            </g>
        </g>
    </g>
    <defs>
        <linearGradient id="_Linear2" x1="0" y1="0" x2="1" y2="0" gradientUnits="userSpaceOnUse" gradientTransform="matrix(1,0,0,1,0,0.0409155)"><stop offset="0" style="stop-color:rgb(97,72,55);stop-opacity:1"/><stop offset="0.08" style="stop-color:rgb(97,72,55);stop-opacity:1"/><stop offset="1" style="stop-color:rgb(80,58,43);stop-opacity:1"/></linearGradient>
        <linearGradient id="_Linear3" x1="0" y1="0" x2="1" y2="0" gradientUnits="userSpaceOnUse" gradientTransform="matrix(0.676155,0.736759,-0.736759,0.676155,0.0316337,-0.0719679)"><stop offset="0" style="stop-color:rgb(80,58,43);stop-opacity:1"/><stop offset="0.08" style="stop-color:rgb(80,58,43);stop-opacity:1"/><stop offset="1" style="stop-color:rgb(97,72,55);stop-opacity:1"/></linearGradient>
        <linearGradient id="_Linear4" x1="0" y1="0" x2="1" y2="0" gradientUnits="userSpaceOnUse" gradientTransform="matrix(-0.539708,0.841852,-0.841852,-0.539708,0.393822,-0.215326)"><stop offset="0" style="stop-color:rgb(97,72,55);stop-opacity:1"/><stop offset="1" style="stop-color:rgb(80,58,43);stop-opacity:1"/></linearGradient>
        <radialGradient id="_Radial6" cx="0" cy="0" r="1" gradientUnits="userSpaceOnUse" gradientTransform="matrix(1,0,0,-1,0,0.173073)"><stop offset="0" style="stop-color:rgb(124,92,70);stop-opacity:1"/><stop offset="0.02" style="stop-color:rgb(124,92,70);stop-opacity:1"/><stop offset="0.49" style="stop-color:rgb(97,72,55);stop-opacity:1"/><stop offset="1" style="stop-color:rgb(80,58,43);stop-opacity:1"/></radialGradient>
        <radialGradient id="_Radial7" cx="0" cy="0" r="1" gradientUnits="userSpaceOnUse" gradientTransform="matrix(1,0,0,-1,0,0.694303)"><stop offset="0" style="stop-color:rgb(124,92,70);stop-opacity:1"/><stop offset="0.02" style="stop-color:rgb(124,92,70);stop-opacity:1"/><stop offset="0.49" style="stop-color:rgb(97,72,55);stop-opacity:1"/><stop offset="1" style="stop-color:rgb(80,58,43);stop-opacity:1"/></radialGradient>
        <linearGradient id="_Linear9" x1="0" y1="0" x2="1" y2="0" gradientUnits="userSpaceOnUse" gradientTransform="matrix(1,0,0,1,0,0.0111636)"><stop offset="0" style="stop-color:white;stop-opacity:1"/><stop offset="1" style="stop-color:rgb(183,36,108);stop-opacity:1"/></linearGradient>
        <linearGradient id="_Linear10" x1="0" y1="0" x2="1" y2="0" gradientUnits="userSpaceOnUse" gradientTransform="matrix(1,0,0,1,0,0.00574642)"><stop offset="0" style="stop-color:white;stop-opacity:1"/><stop offset="1" style="stop-color:rgb(183,36,108);stop-opacity:1"/></linearGradient>
        <linearGradient id="_Linear11" x1="0" y1="0" x2="1" y2="0" gradientUnits="userSpaceOnUse" gradientTransform="matrix(1,0,0,1,0,0.00402193)"><stop offset="0" style="stop-color:rgb(245,142,143);stop-opacity:1"/><stop offset="0.03" style="stop-color:rgb(245,142,143);stop-opacity:1"/><stop offset="1" style="stop-color:rgb(218,88,89);stop-opacity:1"/></linearGradient>
    </defs>
</svg>
